  0
SECTION
  2
HEADER
  9
$ACADVER
  1
AC1014
  9
$ACADMAINTVER
 70
     9
  9
$DWGCODEPAGE
  3
ANSI_1252
  9
$INSBASE
 10
0.0
 20
0.0
 30
0.0
  9
$EXTMIN
 10
1.000000000000000E+20
 20
1.000000000000000E+20
 30
1.000000000000000E+20
  9
$EXTMAX
 10
-1.000000000000000E+20
 20
-1.000000000000000E+20
 30
-1.000000000000000E+20
  9
$LIMMIN
 10
0.0
 20
0.0
  9
$LIMMAX
 10
12.0
 20
9.0
  9
$ORTHOMODE
 70
     0
  9
$REGENMODE
 70
     1
  9
$FILLMODE
 70
     1
  9
$QTEXTMODE
 70
     0
  9
$MIRRTEXT
 70
     1
  9
$DRAGMODE
 70
     2
  9
$LTSCALE
 40
1.0
  9
$OSMODE
 70
    37
  9
$ATTMODE
 70
     1
  9
$TEXTSIZE
 40
0.2
  9
$TRACEWID
 40
0.05
  9
$TEXTSTYLE
  7
STANDARD
  9
$CLAYER
  8
0
  9
$CELTYPE
  6
BYLAYER
  9
$CECOLOR
 62
   256
  9
$CELTSCALE
 40
1.0
  9
$DELOBJ
 70
     1
  9
$DISPSILH
 70
     0
  9
$DIMSCALE
 40
1.0
  9
$DIMASZ
 40
0.18
  9
$DIMEXO
 40
0.0625
  9
$DIMDLI
 40
0.38
  9
$DIMRND
 40
0.0
  9
$DIMDLE
 40
0.0
  9
$DIMEXE
 40
0.18
  9
$DIMTP
 40
0.0
  9
$DIMTM
 40
0.0
  9
$DIMTXT
 40
0.18
  9
$DIMCEN
 40
0.09
  9
$DIMTSZ
 40
0.0
  9
$DIMTOL
 70
     0
  9
$DIMLIM
 70
     0
  9
$DIMTIH
 70
     1
  9
$DIMTOH
 70
     1
  9
$DIMSE1
 70
     0
  9
$DIMSE2
 70
     0
  9
$DIMTAD
 70
     0
  9
$DIMZIN
 70
     0
  9
$DIMBLK
  1

  9
$DIMASO
 70
     1
  9
$DIMSHO
 70
     1
  9
$DIMPOST
  1

  9
$DIMAPOST
  1

  9
$DIMALT
 70
     0
  9
$DIMALTD
 70
     2
  9
$DIMALTF
 40
25.4
  9
$DIMLFAC
 40
1.0
  9
$DIMTOFL
 70
     0
  9
$DIMTVP
 40
0.0
  9
$DIMTIX
 70
     0
  9
$DIMSOXD
 70
     0
  9
$DIMSAH
 70
     0
  9
$DIMBLK1
  1

  9
$DIMBLK2
  1

  9
$DIMSTYLE
  2
STANDARD
  9
$DIMCLRD
 70
     0
  9
$DIMCLRE
 70
     0
  9
$DIMCLRT
 70
     0
  9
$DIMTFAC
 40
1.0
  9
$DIMGAP
 40
0.09
  9
$DIMJUST
 70
     0
  9
$DIMSD1
 70
     0
  9
$DIMSD2
 70
     0
  9
$DIMTOLJ
 70
     1
  9
$DIMTZIN
 70
     0
  9
$DIMALTZ
 70
     0
  9
$DIMALTTZ
 70
     0
  9
$DIMFIT
 70
     3
  9
$DIMUPT
 70
     0
  9
$DIMUNIT
 70
     2
  9
$DIMDEC
 70
     4
  9
$DIMTDEC
 70
     4
  9
$DIMALTU
 70
     2
  9
$DIMALTTD
 70
     2
  9
$DIMTXSTY
  7
STANDARD
  9
$DIMAUNIT
 70
     0
  9
$LUNITS
 70
     2
  9
$LUPREC
 70
     4
  9
$SKETCHINC
 40
0.1
  9
$FILLETRAD
 40
0.5
  9
$AUNITS
 70
     0
  9
$AUPREC
 70
     0
  9
$MENU
  1
.
  9
$ELEVATION
 40
0.0
  9
$PELEVATION
 40
0.0
  9
$THICKNESS
 40
0.0
  9
$LIMCHECK
 70
     0
  9
$CHAMFERA
 40
0.0
  9
$CHAMFERB
 40
0.0
  9
$CHAMFERC
 40
0.0
  9
$CHAMFERD
 40
0.0
  9
$SKPOLY
 70
     0
  9
$TDCREATE
 40
2457025.902968738
  9
$TDUPDATE
 40
2457025.902969491
  9
$TDINDWG
 40
0.0000000116
  9
$TDUSRTIMER
 40
0.0000000116
  9
$USRTIMER
 70
     1
  9
$ANGBASE
 50
0.0
  9
$ANGDIR
 70
     0
  9
$PDMODE
 70
     0
  9
$PDSIZE
 40
0.0
  9
$PLINEWID
 40
0.0
  9
$COORDS
 70
     1
  9
$SPLFRAME
 70
     0
  9
$SPLINETYPE
 70
     6
  9
$SPLINESEGS
 70
     8
  9
$ATTDIA
 70
     0
  9
$ATTREQ
 70
     1
  9
$HANDLING
 70
     1
  9
$HANDSEED
  5
318
  9
$SURFTAB1
 70
     6
  9
$SURFTAB2
 70
     6
  9
$SURFTYPE
 70
     6
  9
$SURFU
 70
     6
  9
$SURFV
 70
     6
  9
$UCSNAME
  2

  9
$UCSORG
 10
0.0
 20
0.0
 30
0.0
  9
$UCSXDIR
 10
1.0
 20
0.0
 30
0.0
  9
$UCSYDIR
 10
0.0
 20
1.0
 30
0.0
  9
$PUCSNAME
  2

  9
$PUCSORG
 10
0.0
 20
0.0
 30
0.0
  9
$PUCSXDIR
 10
1.0
 20
0.0
 30
0.0
  9
$PUCSYDIR
 10
0.0
 20
1.0
 30
0.0
  9
$USERI1
 70
     0
  9
$USERI2
 70
     0
  9
$USERI3
 70
     0
  9
$USERI4
 70
     0
  9
$USERI5
 70
     0
  9
$USERR1
 40
0.0
  9
$USERR2
 40
0.0
  9
$USERR3
 40
0.0
  9
$USERR4
 40
0.0
  9
$USERR5
 40
0.0
  9
$WORLDVIEW
 70
     1
  9
$SHADEDGE
 70
     3
  9
$SHADEDIF
 70
    70
  9
$TILEMODE
 70
     1
  9
$MAXACTVP
 70
    64
  9
$PINSBASE
 10
0.0
 20
0.0
 30
0.0
  9
$PLIMCHECK
 70
     0
  9
$PEXTMIN
 10
1.000000000000000E+20
 20
1.000000000000000E+20
 30
1.000000000000000E+20
  9
$PEXTMAX
 10
-1.000000000000000E+20
 20
-1.000000000000000E+20
 30
-1.000000000000000E+20
  9
$PLIMMIN
 10
0.0
 20
0.0
  9
$PLIMMAX
 10
12.0
 20
9.0
  9
$UNITMODE
 70
     0
  9
$VISRETAIN
 70
     1
  9
$PLINEGEN
 70
     0
  9
$PSLTSCALE
 70
     1
  9
$TREEDEPTH
 70
  3020
  9
$PICKSTYLE
 70
     1
  9
$CMLSTYLE
  2
STANDARD
  9
$CMLJUST
 70
     0
  9
$CMLSCALE
 40
1.0
  9
$PROXYGRAPHICS
 70
     1
  9
$MEASUREMENT
 70
     1
  0
ENDSEC
  0
SECTION
  2
CLASSES
  0
CLASS
  1
ACDBDICTIONARYWDFLT
  2
AcDbDictionaryWithDefault
  3
ObjectDBX Classes
 90
        0
280
     0
281
     0
  0
CLASS
  1
VISUALSTYLE
  2
AcDbVisualStyle
  3
ObjectDBX Classes
 90
     4095
280
     0
281
     0
  0
CLASS
  1
MATERIAL
  2
AcDbMaterial
  3
ObjectDBX Classes
 90
     1153
280
     0
281
     0
  0
CLASS
  1
SCALE
  2
AcDbScale
  3
ObjectDBX Classes
 90
     1153
280
     0
281
     0
  0
CLASS
  1
SUN
  2
AcDbSun
  3
SCENEOE
 90
     1153
280
     0
281
     0
  0
CLASS
  1
DICTIONARYVAR
  2
AcDbDictionaryVar
  3
ObjectDBX Classes
 90
        0
280
     0
281
     0
  0
CLASS
  1
XRECORD
  2
AcDbXrecord
  3
ObjectDBX Classes
 90
        0
280
     0
281
     0
  0
CLASS
  1
LWPOLYLINE
  2
AcDbPolyline
  3
ObjectDBX Classes
 90
        0
280
     0
281
     1
  0
CLASS
  1
HATCH
  2
AcDbHatch
  3
ObjectDBX Classes
 90
        0
280
     0
281
     1
  0
CLASS
  1
ACDBPLACEHOLDER
  2
AcDbPlaceHolder
  3
ObjectDBX Classes
 90
        0
280
     0
281
     0
  0
CLASS
  1
LAYOUT
  2
AcDbLayout
  3
ObjectDBX Classes
 90
        0
280
     0
281
     0
  0
ENDSEC
  0
SECTION
  2
TABLES
  0
TABLE
  2
VPORT
  5
8
102
{ACAD_XDICTIONARY
360
30E
102
}
330
0
100
AcDbSymbolTable
 70
     1
  0
VPORT
  5
29
330
8
100
AcDbSymbolTableRecord
100
AcDbViewportTableRecord
  2
*ACTIVE
 70
     0
 10
0.0
 20
0.0
 11
1.0
 21
1.0
 12
0.0
 22
0.0
 13
0.0
 23
0.0
 14
0.5
 24
0.5
 15
0.5
 25
0.5
 16
0.0
 26
0.0
 36
1.0
 17
0.0
 27
0.0
 37
-1000.0
 40
455.5239930176886
 41
2.146478873239436
 42
50.0
 43
322.1506880601722
 44
814.6855298513228
 50
0.0
 51
0.0
 71
     0
 72
   100
 73
     1
 74
     3
 75
     0
 76
     0
 77
     0
 78
     0
  0
ENDTAB
  0
TABLE
  2
LTYPE
  5
5
330
0
100
AcDbSymbolTable
 70
     1
  0
LTYPE
  5
14
330
5
100
AcDbSymbolTableRecord
100
AcDbLinetypeTableRecord
  2
BYBLOCK
 70
     0
  3

 72
    65
 73
     0
 40
0.0
  0
LTYPE
  5
15
330
5
100
AcDbSymbolTableRecord
100
AcDbLinetypeTableRecord
  2
BYLAYER
 70
     0
  3

 72
    65
 73
     0
 40
0.0
  0
LTYPE
  5
16
330
5
100
AcDbSymbolTableRecord
100
AcDbLinetypeTableRecord
  2
CONTINUOUS
 70
     0
  3
Solid line
 72
    65
 73
     0
 40
0.0
  0
ENDTAB
  0
TABLE
  2
LAYER
  5
2
330
0
100
AcDbSymbolTable
 70
     3
  0
LAYER
  5
10
330
2
100
AcDbSymbolTableRecord
100
AcDbLayerTableRecord
  2
0
 70
     0
 62
     7
  6
CONTINUOUS
  0
LAYER
  5
6A
330
2
100
AcDbSymbolTableRecord
100
AcDbLayerTableRecord
  2
PROFILEEDGES
 70
     0
 62
     7
  6
CONTINUOUS
  0
LAYER
  5
6B
330
2
100
AcDbSymbolTableRecord
100
AcDbLayerTableRecord
  2
SECTIONCUTEDGES
 70
     0
 62
     7
  6
CONTINUOUS
  0
ENDTAB
  0
TABLE
  2
STYLE
  5
3
330
0
100
AcDbSymbolTable
 70
     1
  0
STYLE
  5
11
330
3
100
AcDbSymbolTableRecord
100
AcDbTextStyleTableRecord
  2
STANDARD
 70
     0
 40
0.0
 41
1.0
 50
0.0
 71
     0
 42
0.2
  3
txt
  4

  0
ENDTAB
  0
TABLE
  2
VIEW
  5
6
330
0
100
AcDbSymbolTable
 70
     0
  0
ENDTAB
  0
TABLE
  2
UCS
  5
7
330
0
100
AcDbSymbolTable
 70
     0
  0
ENDTAB
  0
TABLE
  2
APPID
  5
9
330
0
100
AcDbSymbolTable
 70
     1
  0
APPID
  5
12
330
9
100
AcDbSymbolTableRecord
100
AcDbRegAppTableRecord
  2
ACAD
 70
     0
  0
ENDTAB
  0
TABLE
  2
DIMSTYLE
  5
A
330
0
100
AcDbSymbolTable
 70
     1
  0
DIMSTYLE
105
27
330
A
100
AcDbSymbolTableRecord
100
AcDbDimStyleTableRecord
  2
STANDARD
 70
     0
  3

  4

  5

  6

  7

 40
1.0
 41
0.18
 42
0.0625
 43
0.38
 44
0.18
 45
0.0
 46
0.0
 47
0.0
 48
0.0
140
0.18
141
0.09
142
0.0
143
25.4
144
1.0
145
0.0
146
1.0
147
0.09
 71
     0
 72
     0
 73
     1
 74
     1
 75
     0
 76
     0
 77
     0
 78
     0
170
     0
171
     2
172
     0
173
     0
174
     0
175
     0
176
     0
177
     0
178
     0
270
     2
271
     4
272
     4
273
     2
274
     2
340
11
275
     0
280
     0
281
     0
282
     0
283
     1
284
     0
285
     0
286
     0
287
     3
288
     0
  0
ENDTAB
  0
TABLE
  2
BLOCK_RECORD
  5
1
330
0
100
AcDbSymbolTable
 70
     1
  0
BLOCK_RECORD
  5
1F
330
1
100
AcDbSymbolTableRecord
100
AcDbBlockTableRecord
  2
*MODEL_SPACE
  0
BLOCK_RECORD
  5
1B
330
1
100
AcDbSymbolTableRecord
100
AcDbBlockTableRecord
  2
*PAPER_SPACE
  0
ENDTAB
  0
ENDSEC
  0
SECTION
  2
BLOCKS
  0
BLOCK
  5
20
330
1F
100
AcDbEntity
  8
0
100
AcDbBlockBegin
  2
*MODEL_SPACE
 70
     0
 10
0.0
 20
0.0
 30
0.0
  3
*MODEL_SPACE
  1

  0
ENDBLK
  5
21
330
1F
100
AcDbEntity
  8
0
100
AcDbBlockEnd
  0
BLOCK
  5
1C
330
1B
100
AcDbEntity
 67
     1
  8
0
100
AcDbBlockBegin
  2
*PAPER_SPACE
 70
     0
 10
0.0
 20
0.0
 30
0.0
  3
*PAPER_SPACE
  1

  0
ENDBLK
  5
1D
330
1B
100
AcDbEntity
 67
     1
  8
0
100
AcDbBlockEnd
  0
ENDSEC
  0
SECTION
  2
ENTITIES
  0
LINE
  5
6C
330
1F
100
AcDbEntity
  8
0
100
AcDbLine
 10
415.8964480158133
 20
-50.14619471607489
 30
0.0
 11
415.8814480164384
 21
-20.14619846607478
 31
0.0
  0
LINE
  5
6D
330
1F
100
AcDbEntity
  8
0
100
AcDbLine
 10
415.9164480149798
 20
-90.14618971607493
 30
0.0
 11
415.901448015605
 21
-60.14619346607499
 31
0.0
  0
LINE
  5
6E
330
1F
100
AcDbEntity
  8
0
100
AcDbLine
 10
415.901448015605
 20
-60.14619346607499
 30
0.0
 11
410.3454487101049
 21
-60.14897146595922
 31
0.0
  0
LINE
  5
6F
330
1F
100
AcDbEntity
  8
0
100
AcDbLine
 10
454.8244431484802
 20
-18.12672671688635
 30
0.0
 11
454.8260681484125
 21
-21.37672631063635
 31
0.0
  0
LINE
  5
70
330
1F
100
AcDbEntity
  8
0
100
AcDbLine
 10
410.3454487101049
 20
-60.14897146595922
 30
0.0
 11
410.3404487103133
 21
-50.14897271595912
 31
0.0
  0
LINE
  5
71
330
1F
100
AcDbEntity
  8
0
100
AcDbLine
 10
458.86044264698
 20
-90.12471771696977
 30
0.0
 11
442.3884447059801
 21
-90.13295371662653
 31
0.0
  0
LINE
  5
72
330
1F
100
AcDbEntity
  8
0
100
AcDbLine
 10
452.8254433984386
 20
-20.12772646684459
 30
0.0
 11
415.8814480164384
 21
-20.14619846607478
 31
0.0
  0
LINE
  5
73
330
1F
100
AcDbEntity
  8
0
100
AcDbLine
 10
454.8260681484125
 20
-21.37672631063635
 30
0.0
 11
458.8260676484125
 21
-21.37472631071969
 31
0.0
  0
LINE
  5
74
330
1F
100
AcDbEntity
  8
0
100
AcDbLine
 10
452.8244433984803
 20
-18.12772671684468
 30
0.0
 11
452.8254433984386
 21
-20.12772646684459
 31
0.0
  0
LINE
  5
75
330
1F
100
AcDbEntity
  8
0
100
AcDbLine
 10
458.8260676484125
 20
-21.37472631071969
 30
0.0
 11
458.8404426478135
 21
-50.12472271696973
 31
0.0
  0
LINE
  5
76
330
1F
100
AcDbEntity
  8
0
100
AcDbLine
 10
452.8244433984803
 20
-18.12772671684468
 30
0.0
 11
454.8244431484802
 21
-18.12672671688635
 31
0.0
  0
LINE
  5
77
330
1F
100
AcDbEntity
  8
0
100
AcDbLine
 10
410.3404487103133
 20
-50.14897271595912
 30
0.0
 11
415.8964480158133
 21
-50.14619471607489
 31
0.0
  0
LINE
  5
78
330
1F
100
AcDbEntity
  8
0
100
AcDbLine
 10
432.38844595598
 20
-90.13795371641815
 30
0.0
 11
415.9164480149798
 21
-90.14618971607493
 31
0.0
  0
LINE
  5
79
330
1F
100
AcDbEntity
  8
0
100
AcDbLine
 10
432.38844595598
 20
-90.13795371641815
 30
0.0
 11
432.3912239558643
 21
-95.69395302191828
 31
0.0
  0
LINE
  5
7A
330
1F
100
AcDbEntity
  8
0
100
AcDbLine
 10
432.3912239558643
 20
-95.69395302191828
 30
0.0
 11
442.3912227058643
 21
-95.68895302212665
 31
0.0
  0
LINE
  5
7B
330
1F
100
AcDbEntity
  8
0
100
AcDbLine
 10
442.3912227058643
 20
-95.68895302212665
 30
0.0
 11
442.3884447059801
 21
-90.13295371662653
 31
0.0
  0
LINE
  5
7C
330
1F
100
AcDbEntity
  8
0
100
AcDbLine
 10
458.8454426476051
 20
-60.12472146696982
 30
0.0
 11
458.86044264698
 21
-90.12471771696977
 31
0.0
  0
LINE
  5
7D
330
1F
100
AcDbEntity
  8
0
100
AcDbLine
 10
458.8454426476051
 20
-60.12472146696982
 30
0.0
 11
464.4014419531051
 21
-60.12194346708559
 31
0.0
  0
LINE
  5
7E
330
1F
100
AcDbEntity
  8
0
100
AcDbLine
 10
464.4014419531051
 20
-60.12194346708559
 30
0.0
 11
464.3964419533136
 21
-50.1219447170855
 31
0.0
  0
LINE
  5
7F
330
1F
100
AcDbEntity
  8
0
100
AcDbLine
 10
464.3964419533136
 20
-50.1219447170855
 30
0.0
 11
458.8404426478135
 21
-50.12472271696973
 31
0.0
  0
LINE
  5
80
330
1F
100
AcDbEntity
  8
0
100
AcDbLine
 10
361.789648774931
 20
51.43876458355154
 30
0.0
 11
361.774648775556
 21
81.43876083355165
 31
0.0
  0
LINE
  5
81
330
1F
100
AcDbEntity
  8
0
100
AcDbLine
 10
-361.90101077029
 20
208.5769389111272
 30
0.0
 11
-361.9003857703161
 21
207.3269390673771
 31
0.0
  0
LINE
  5
82
330
1F
100
AcDbEntity
  8
0
100
AcDbLine
 10
361.7108987782123
 20
208.938744896052
 30
0.0
 11
254.9049121289618
 21
208.8853418982771
 31
0.0
  0
LINE
  5
83
330
1F
100
AcDbEntity
  8
0
100
AcDbLine
 10
-361.8222607735713
 20
51.07695859862681
 30
0.0
 11
-255.016274124321
 21
51.13036159640168
 31
0.0
  0
LINE
  5
84
330
1F
100
AcDbEntity
  8
0
100
AcDbLine
 10
-336.3100139662483
 20
138.5897256605946
 30
0.0
 11
-336.3012639666129
 21
121.0897278480946
 31
0.0
  0
LINE
  5
85
330
1F
100
AcDbEntity
  8
0
100
AcDbLine
 10
-336.3012639666129
 20
121.0897278480946
 30
0.0
 11
336.198651970889
 21
121.4259778340842
 31
0.0
  0
LINE
  5
86
330
1F
100
AcDbEntity
  8
0
100
AcDbLine
 10
336.198651970889
 20
121.4259778340842
 30
0.0
 11
336.1899019712536
 21
138.9259756465842
 31
0.0
  0
LINE
  5
87
330
1F
100
AcDbEntity
  8
0
100
AcDbLine
 10
336.1899019712536
 20
138.9259756465842
 30
0.0
 11
-336.3100139662483
 21
138.5897256605946
 31
0.0
  0
LINE
  5
88
330
1F
100
AcDbEntity
  8
0
100
AcDbLine
 10
297.1419068505865
 20
178.9064566473973
 30
0.0
 11
302.6979061560864
 21
178.9092346472816
 31
0.0
  0
LINE
  5
89
330
1F
100
AcDbEntity
  8
0
100
AcDbLine
 10
302.6979061560864
 20
178.9092346472816
 30
0.0
 11
302.7029061558782
 21
168.9092358972815
 31
0.0
  0
LINE
  5
8A
330
1F
100
AcDbEntity
  8
0
100
AcDbLine
 10
302.7029061558782
 20
168.9092358972815
 30
0.0
 11
297.1469068503782
 21
168.9064578973973
 31
0.0
  0
LINE
  5
8B
330
1F
100
AcDbEntity
  8
0
100
AcDbLine
 10
297.1469068503782
 20
168.9064578973973
 30
0.0
 11
297.1419068505865
 21
178.9064566473973
 31
0.0
  0
LINE
  5
8C
330
1F
100
AcDbEntity
  8
0
100
AcDbLine
 10
197.1419193505862
 20
178.8564566494807
 30
0.0
 11
202.6979186560862
 21
178.8592346493649
 31
0.0
  0
LINE
  5
8D
330
1F
100
AcDbEntity
  8
0
100
AcDbLine
 10
202.6979186560862
 20
178.8592346493649
 30
0.0
 11
202.7029186558779
 21
168.8592358993649
 31
0.0
  0
LINE
  5
8E
330
1F
100
AcDbEntity
  8
0
100
AcDbLine
 10
202.7029186558779
 20
168.8592358993649
 30
0.0
 11
197.1469193503779
 21
168.8564578994806
 31
0.0
  0
LINE
  5
8F
330
1F
100
AcDbEntity
  8
0
100
AcDbLine
 10
197.1469193503779
 20
168.8564578994806
 30
0.0
 11
197.1419193505862
 21
178.8564566494807
 31
0.0
  0
LINE
  5
90
330
1F
100
AcDbEntity
  8
0
100
AcDbLine
 10
97.14193185058602
 20
178.806456651564
 30
0.0
 11
102.6979311560859
 21
178.8092346514482
 31
0.0
  0
LINE
  5
91
330
1F
100
AcDbEntity
  8
0
100
AcDbLine
 10
102.6979311560859
 20
178.8092346514482
 30
0.0
 11
102.7029311558776
 21
168.8092359014482
 31
0.0
  0
LINE
  5
92
330
1F
100
AcDbEntity
  8
0
100
AcDbLine
 10
102.7029311558776
 20
168.8092359014482
 30
0.0
 11
97.14693185037771
 21
168.806457901564
 31
0.0
  0
LINE
  5
93
330
1F
100
AcDbEntity
  8
0
100
AcDbLine
 10
97.14693185037771
 20
168.806457901564
 30
0.0
 11
97.14193185058602
 21
178.806456651564
 31
0.0
  0
LINE
  5
94
330
1F
100
AcDbEntity
  8
0
100
AcDbLine
 10
-2.858055649414246
 20
178.7564566536473
 30
0.0
 11
2.697943656085773
 21
178.7592346535316
 31
0.0
  0
LINE
  5
95
330
1F
100
AcDbEntity
  8
0
100
AcDbLine
 10
2.697943656085773
 20
178.7592346535316
 30
0.0
 11
2.702943655877419
 21
168.7592359035315
 31
0.0
  0
LINE
  5
96
330
1F
100
AcDbEntity
  8
0
100
AcDbLine
 10
2.702943655877419
 20
168.7592359035315
 30
0.0
 11
-2.8530556496226
 21
168.7564579036473
 31
0.0
  0
LINE
  5
97
330
1F
100
AcDbEntity
  8
0
100
AcDbLine
 10
-2.8530556496226
 20
168.7564579036473
 30
0.0
 11
-2.858055649414246
 21
178.7564566536473
 31
0.0
  0
LINE
  5
98
330
1F
100
AcDbEntity
  8
0
100
AcDbLine
 10
-102.8580431494145
 20
178.7064566557307
 30
0.0
 11
-97.30204384391449
 21
178.7092346556149
 31
0.0
  0
LINE
  5
99
330
1F
100
AcDbEntity
  8
0
100
AcDbLine
 10
-97.30204384391449
 20
178.7092346556149
 30
0.0
 11
-97.29704384412284
 21
168.7092359056149
 31
0.0
  0
LINE
  5
9A
330
1F
100
AcDbEntity
  8
0
100
AcDbLine
 10
-97.29704384412284
 20
168.7092359056149
 30
0.0
 11
-102.8530431496229
 21
168.7064579057306
 31
0.0
  0
LINE
  5
9B
330
1F
100
AcDbEntity
  8
0
100
AcDbLine
 10
-102.8530431496229
 20
168.7064579057306
 30
0.0
 11
-102.8580431494145
 21
178.7064566557307
 31
0.0
  0
LINE
  5
9C
330
1F
100
AcDbEntity
  8
0
100
AcDbLine
 10
-202.8580306494148
 20
178.656456657814
 30
0.0
 11
-197.3020313439148
 21
178.6592346576983
 31
0.0
  0
LINE
  5
9D
330
1F
100
AcDbEntity
  8
0
100
AcDbLine
 10
-197.3020313439148
 20
178.6592346576983
 30
0.0
 11
-197.2970313441231
 21
168.6592359076982
 31
0.0
  0
LINE
  5
9E
330
1F
100
AcDbEntity
  8
0
100
AcDbLine
 10
-197.2970313441231
 20
168.6592359076982
 30
0.0
 11
-202.8530306496231
 21
168.6564579078139
 31
0.0
  0
LINE
  5
9F
330
1F
100
AcDbEntity
  8
0
100
AcDbLine
 10
-202.8530306496231
 20
168.6564579078139
 30
0.0
 11
-202.8580306494148
 21
178.656456657814
 31
0.0
  0
LINE
  5
A0
330
1F
100
AcDbEntity
  8
0
100
AcDbLine
 10
-302.858018149415
 20
178.6064566598973
 30
0.0
 11
-297.3020188439151
 21
178.6092346597816
 31
0.0
  0
LINE
  5
A1
330
1F
100
AcDbEntity
  8
0
100
AcDbLine
 10
-297.3020188439151
 20
178.6092346597816
 30
0.0
 11
-297.2970188441234
 21
168.6092359097816
 31
0.0
  0
LINE
  5
A2
330
1F
100
AcDbEntity
  8
0
100
AcDbLine
 10
-297.2970188441234
 20
168.6092359097816
 30
0.0
 11
-302.8530181496234
 21
168.6064579098973
 31
0.0
  0
LINE
  5
A3
330
1F
100
AcDbEntity
  8
0
100
AcDbLine
 10
-302.8530181496234
 20
168.6064579098973
 30
0.0
 11
-302.858018149415
 21
178.6064566598973
 31
0.0
  0
LINE
  5
A4
330
1F
100
AcDbEntity
  8
0
100
AcDbLine
 10
-202.8142806512375
 20
91.15646759531381
 30
0.0
 11
-197.2582813457375
 21
91.15924559519806
 31
0.0
  0
LINE
  5
A5
330
1F
100
AcDbEntity
  8
0
100
AcDbLine
 10
-197.2582813457375
 20
91.15924559519806
 30
0.0
 11
-197.2532813459459
 21
81.15924684519804
 31
0.0
  0
LINE
  5
A6
330
1F
100
AcDbEntity
  8
0
100
AcDbLine
 10
-197.2532813459459
 20
81.15924684519804
 30
0.0
 11
-202.8092806514458
 21
81.1564688453138
 31
0.0
  0
LINE
  5
A7
330
1F
100
AcDbEntity
  8
0
100
AcDbLine
 10
-202.8092806514458
 20
81.1564688453138
 30
0.0
 11
-202.8142806512375
 21
91.15646759531381
 31
0.0
  0
LINE
  5
A8
330
1F
100
AcDbEntity
  8
0
100
AcDbLine
 10
-102.8142931512373
 20
91.20646759323047
 30
0.0
 11
-97.25829384573724
 21
91.20924559311472
 31
0.0
  0
LINE
  5
A9
330
1F
100
AcDbEntity
  8
0
100
AcDbLine
 10
-97.25829384573724
 20
91.20924559311472
 30
0.0
 11
-97.25329384594555
 21
81.20924684311471
 31
0.0
  0
LINE
  5
AA
330
1F
100
AcDbEntity
  8
0
100
AcDbLine
 10
-97.25329384594555
 20
81.20924684311471
 30
0.0
 11
-102.8092931514456
 21
81.20646884323045
 31
0.0
  0
LINE
  5
AB
330
1F
100
AcDbEntity
  8
0
100
AcDbLine
 10
-102.8092931514456
 20
81.20646884323045
 30
0.0
 11
-102.8142931512373
 21
91.20646759323047
 31
0.0
  0
LINE
  5
AC
330
1F
100
AcDbEntity
  8
0
100
AcDbLine
 10
-2.814305651236992
 20
91.25646759114714
 30
0.0
 11
2.741693654263027
 21
91.25924559103139
 31
0.0
  0
LINE
  5
AD
330
1F
100
AcDbEntity
  8
0
100
AcDbLine
 10
2.741693654263027
 20
91.25924559103139
 30
0.0
 11
2.746693654054718
 21
81.25924684103137
 31
0.0
  0
LINE
  5
AE
330
1F
100
AcDbEntity
  8
0
100
AcDbLine
 10
2.746693654054718
 20
81.25924684103137
 30
0.0
 11
-2.809305651445301
 21
81.25646884114713
 31
0.0
  0
LINE
  5
AF
330
1F
100
AcDbEntity
  8
0
100
AcDbLine
 10
-2.809305651445301
 20
81.25646884114713
 30
0.0
 11
-2.814305651236992
 21
91.25646759114714
 31
0.0
  0
LINE
  5
B0
330
1F
100
AcDbEntity
  8
0
100
AcDbLine
 10
97.18568184876327
 20
91.3064675890638
 30
0.0
 11
102.7416811542632
 21
91.30924558894806
 31
0.0
  0
LINE
  5
B1
330
1F
100
AcDbEntity
  8
0
100
AcDbLine
 10
102.7416811542632
 20
91.30924558894806
 30
0.0
 11
102.7466811540549
 21
81.30924683894804
 31
0.0
  0
LINE
  5
B2
330
1F
100
AcDbEntity
  8
0
100
AcDbLine
 10
102.7466811540549
 20
81.30924683894804
 30
0.0
 11
97.19068184855496
 21
81.30646883906378
 31
0.0
  0
LINE
  5
B3
330
1F
100
AcDbEntity
  8
0
100
AcDbLine
 10
97.19068184855496
 20
81.30646883906378
 30
0.0
 11
97.18568184876327
 21
91.3064675890638
 31
0.0
  0
LINE
  5
B4
330
1F
100
AcDbEntity
  8
0
100
AcDbLine
 10
197.1856693487634
 20
91.35646758698049
 30
0.0
 11
202.7416686542635
 21
91.35924558686473
 31
0.0
  0
LINE
  5
B5
330
1F
100
AcDbEntity
  8
0
100
AcDbLine
 10
202.7416686542635
 20
91.35924558686473
 30
0.0
 11
202.7466686540552
 21
81.35924683686471
 31
0.0
  0
LINE
  5
B6
330
1F
100
AcDbEntity
  8
0
100
AcDbLine
 10
202.7466686540552
 20
81.35924683686471
 30
0.0
 11
197.1906693485551
 21
81.35646883698047
 31
0.0
  0
LINE
  5
B7
330
1F
100
AcDbEntity
  8
0
100
AcDbLine
 10
197.1906693485551
 20
81.35646883698047
 30
0.0
 11
197.1856693487634
 21
91.35646758698049
 31
0.0
  0
LINE
  5
B8
330
1F
100
AcDbEntity
  8
0
100
AcDbLine
 10
297.1856568487637
 20
91.40646758489714
 30
0.0
 11
302.7416561542638
 21
91.40924558478139
 31
0.0
  0
LINE
  5
B9
330
1F
100
AcDbEntity
  8
0
100
AcDbLine
 10
302.7416561542638
 20
91.40924558478139
 30
0.0
 11
302.7466561540554
 21
81.40924683478138
 31
0.0
  0
LINE
  5
BA
330
1F
100
AcDbEntity
  8
0
100
AcDbLine
 10
302.7466561540554
 20
81.40924683478138
 30
0.0
 11
297.1906568485554
 21
81.40646883489713
 31
0.0
  0
LINE
  5
BB
330
1F
100
AcDbEntity
  8
0
100
AcDbLine
 10
297.1906568485554
 20
81.40646883489713
 30
0.0
 11
297.1856568487637
 21
91.40646758489714
 31
0.0
  0
LINE
  5
BC
330
1F
100
AcDbEntity
  8
0
100
AcDbLine
 10
361.774648775556
 20
81.43876083355165
 30
0.0
 11
356.2186494700555
 21
81.43598283366741
 31
0.0
  0
LINE
  5
BD
330
1F
100
AcDbEntity
  8
0
100
AcDbLine
 10
356.2186494700555
 20
81.43598283366741
 30
0.0
 11
356.2136494702638
 21
91.4359815836674
 31
0.0
  0
LINE
  5
BE
330
1F
100
AcDbEntity
  8
0
100
AcDbLine
 10
356.2136494702638
 20
91.4359815836674
 30
0.0
 11
361.7696487757643
 21
91.43875958355164
 31
0.0
  0
LINE
  5
BF
330
1F
100
AcDbEntity
  8
0
100
AcDbLine
 10
361.7696487757643
 20
91.43875958355164
 30
0.0
 11
361.7308987773789
 21
168.9387498960519
 31
0.0
  0
LINE
  5
C0
330
1F
100
AcDbEntity
  8
0
100
AcDbLine
 10
361.7308987773789
 20
168.9387498960519
 30
0.0
 11
356.1748994718783
 21
168.9359718961676
 31
0.0
  0
LINE
  5
C1
330
1F
100
AcDbEntity
  8
0
100
AcDbLine
 10
356.1748994718783
 20
168.9359718961676
 30
0.0
 11
356.1698994720866
 21
178.9359706461676
 31
0.0
  0
LINE
  5
C2
330
1F
100
AcDbEntity
  8
0
100
AcDbLine
 10
356.1698994720866
 20
178.9359706461676
 30
0.0
 11
361.7258987775872
 21
178.9387486460518
 31
0.0
  0
LINE
  5
C3
330
1F
100
AcDbEntity
  8
0
100
AcDbLine
 10
361.7258987775872
 20
178.9387486460518
 30
0.0
 11
361.7108987782123
 21
208.938744896052
 31
0.0
  0
LINE
  5
C4
330
1F
100
AcDbEntity
  8
0
100
AcDbLine
 10
-361.8860107709152
 20
178.576942661127
 30
0.0
 11
-356.3300114654147
 21
178.5797206610113
 31
0.0
  0
LINE
  5
C5
330
1F
100
AcDbEntity
  8
0
100
AcDbLine
 10
-356.3300114654147
 20
178.5797206610113
 30
0.0
 11
-356.325011465623
 21
168.5797219110113
 31
0.0
  0
LINE
  5
C6
330
1F
100
AcDbEntity
  8
0
100
AcDbLine
 10
-356.325011465623
 20
168.5797219110113
 30
0.0
 11
-361.8810107711236
 21
168.5769439111271
 31
0.0
  0
LINE
  5
C7
330
1F
100
AcDbEntity
  8
0
100
AcDbLine
 10
-361.842260772738
 20
91.07695359862684
 30
0.0
 11
-356.2862614672376
 21
91.07973159851109
 31
0.0
  0
LINE
  5
C8
330
1F
100
AcDbEntity
  8
0
100
AcDbLine
 10
-356.2862614672376
 20
91.07973159851109
 30
0.0
 11
-356.281261467446
 21
81.07973284851111
 31
0.0
  0
LINE
  5
C9
330
1F
100
AcDbEntity
  8
0
100
AcDbLine
 10
-356.281261467446
 20
81.07973284851111
 30
0.0
 11
-361.8372607729464
 21
81.07695484862687
 31
0.0
  0
LINE
  5
CA
330
1F
100
AcDbEntity
  8
0
100
AcDbLine
 10
-361.8372607729464
 20
81.07695484862687
 30
0.0
 11
-361.8222607735713
 21
51.07695859862681
 31
0.0
  0
LINE
  5
CB
330
1F
100
AcDbEntity
  8
0
100
AcDbLine
 10
-361.8660107717486
 20
138.5769476611271
 30
0.0
 11
-361.8566357721392
 21
119.8269500048769
 31
0.0
  0
LINE
  5
CC
330
1F
100
AcDbEntity
  8
0
100
AcDbLine
 10
-255.0950241210398
 20
208.6303419089021
 30
0.0
 11
-361.90101077029
 21
208.5769389111272
 31
0.0
  0
LINE
  5
CD
330
1F
100
AcDbEntity
  8
0
100
AcDbLine
 10
-255.0950241210398
 20
208.6303419089021
 30
0.0
 11
-255.097802120924
 21
214.186341214402
 31
0.0
  0
LINE
  5
CE
330
1F
100
AcDbEntity
  8
0
100
AcDbLine
 10
-255.097802120924
 20
214.186341214402
 30
0.0
 11
-245.097803370924
 21
214.1913412141937
 31
0.0
  0
LINE
  5
CF
330
1F
100
AcDbEntity
  8
0
100
AcDbLine
 10
-245.097803370924
 20
214.1913412141937
 30
0.0
 11
-245.0950253710396
 21
208.6353419086938
 31
0.0
  0
LINE
  5
D0
330
1F
100
AcDbEntity
  8
0
100
AcDbLine
 10
-155.0950366210395
 20
208.6803419068188
 30
0.0
 11
-155.0978146209237
 21
214.2363412123186
 31
0.0
  0
LINE
  5
D1
330
1F
100
AcDbEntity
  8
0
100
AcDbLine
 10
-145.0978158709237
 20
214.2413412121103
 30
0.0
 11
-145.0950378710393
 21
208.6853419066104
 31
0.0
  0
LINE
  5
D2
330
1F
100
AcDbEntity
  8
0
100
AcDbLine
 10
-155.0978146209237
 20
214.2363412123186
 30
0.0
 11
-145.0978158709237
 21
214.2413412121103
 31
0.0
  0
LINE
  5
D3
330
1F
100
AcDbEntity
  8
0
100
AcDbLine
 10
-155.0950366210395
 20
208.6803419068188
 30
0.0
 11
-245.0950253710396
 21
208.6353419086938
 31
0.0
  0
LINE
  5
D4
330
1F
100
AcDbEntity
  8
0
100
AcDbLine
 10
-55.09504912103916
 20
208.7303419047354
 30
0.0
 11
-55.09782712092341
 21
214.2863412102353
 31
0.0
  0
LINE
  5
D5
330
1F
100
AcDbEntity
  8
0
100
AcDbLine
 10
-45.09782837092334
 20
214.291341210027
 30
0.0
 11
-45.095050371039
 21
208.7353419045271
 31
0.0
  0
LINE
  5
D6
330
1F
100
AcDbEntity
  8
0
100
AcDbLine
 10
-55.09782712092341
 20
214.2863412102353
 30
0.0
 11
-45.09782837092334
 21
214.291341210027
 31
0.0
  0
LINE
  5
D7
330
1F
100
AcDbEntity
  8
0
100
AcDbLine
 10
-55.09504912103916
 20
208.7303419047354
 30
0.0
 11
-145.0950378710393
 21
208.6853419066104
 31
0.0
  0
LINE
  5
D8
330
1F
100
AcDbEntity
  8
0
100
AcDbLine
 10
44.9049383789611
 20
208.7803419026521
 30
0.0
 11
44.90216037907685
 21
214.336341208152
 31
0.0
  0
LINE
  5
D9
330
1F
100
AcDbEntity
  8
0
100
AcDbLine
 10
54.90215912907684
 20
214.3413412079437
 30
0.0
 11
54.90493712896122
 21
208.7853419024437
 31
0.0
  0
LINE
  5
DA
330
1F
100
AcDbEntity
  8
0
100
AcDbLine
 10
44.90216037907685
 20
214.336341208152
 30
0.0
 11
54.90215912907684
 21
214.3413412079437
 31
0.0
  0
LINE
  5
DB
330
1F
100
AcDbEntity
  8
0
100
AcDbLine
 10
44.9049383789611
 20
208.7803419026521
 30
0.0
 11
-45.095050371039
 21
208.7353419045271
 31
0.0
  0
LINE
  5
DC
330
1F
100
AcDbEntity
  8
0
100
AcDbLine
 10
144.9021478790771
 20
214.3863412060687
 30
0.0
 11
154.9021466290772
 21
214.3913412058603
 31
0.0
  0
LINE
  5
DD
330
1F
100
AcDbEntity
  8
0
100
AcDbLine
 10
154.9021466290772
 20
214.3913412058603
 30
0.0
 11
154.9049246289615
 21
208.8353419003604
 31
0.0
  0
LINE
  5
DE
330
1F
100
AcDbEntity
  8
0
100
AcDbLine
 10
144.9049258789614
 20
208.8303419005688
 30
0.0
 11
144.9021478790771
 21
214.3863412060687
 31
0.0
  0
LINE
  5
DF
330
1F
100
AcDbEntity
  8
0
100
AcDbLine
 10
144.9049258789614
 20
208.8303419005688
 30
0.0
 11
54.90493712896122
 21
208.7853419024437
 31
0.0
  0
LINE
  5
E0
330
1F
100
AcDbEntity
  8
0
100
AcDbLine
 10
244.9021353790774
 20
214.4363412039853
 30
0.0
 11
254.9021341290775
 21
214.441341203777
 31
0.0
  0
LINE
  5
E1
330
1F
100
AcDbEntity
  8
0
100
AcDbLine
 10
244.9049133789617
 20
208.8803418984854
 30
0.0
 11
244.9021353790774
 21
214.4363412039853
 31
0.0
  0
LINE
  5
E2
330
1F
100
AcDbEntity
  8
0
100
AcDbLine
 10
254.9021341290775
 20
214.441341203777
 30
0.0
 11
254.9049121289618
 21
208.8853418982771
 31
0.0
  0
LINE
  5
E3
330
1F
100
AcDbEntity
  8
0
100
AcDbLine
 10
244.9049133789617
 20
208.8803418984854
 30
0.0
 11
154.9049246289615
 21
208.8353419003604
 31
0.0
  0
LINE
  5
E4
330
1F
100
AcDbEntity
  8
0
100
AcDbLine
 10
-255.016274124321
 20
51.13036159640168
 30
0.0
 11
-255.0134961244368
 21
45.57436229090158
 31
0.0
  0
LINE
  5
E5
330
1F
100
AcDbEntity
  8
0
100
AcDbLine
 10
-255.0134961244368
 20
45.57436229090158
 30
0.0
 11
-245.0134973744367
 21
45.57936229069324
 31
0.0
  0
LINE
  5
E6
330
1F
100
AcDbEntity
  8
0
100
AcDbLine
 10
-245.016275374321
 20
51.13536159619335
 30
0.0
 11
-155.0162866243208
 21
51.18036159431835
 31
0.0
  0
LINE
  5
E7
330
1F
100
AcDbEntity
  8
0
100
AcDbLine
 10
-245.0134973744367
 20
45.57936229069324
 30
0.0
 11
-245.016275374321
 21
51.13536159619335
 31
0.0
  0
LINE
  5
E8
330
1F
100
AcDbEntity
  8
0
100
AcDbLine
 10
-155.0162866243208
 20
51.18036159431835
 30
0.0
 11
-155.0135086244365
 21
45.62436228881825
 31
0.0
  0
LINE
  5
E9
330
1F
100
AcDbEntity
  8
0
100
AcDbLine
 10
-145.0135098744364
 20
45.6293622886099
 30
0.0
 11
-145.0162878743207
 21
51.18536159411002
 31
0.0
  0
LINE
  5
EA
330
1F
100
AcDbEntity
  8
0
100
AcDbLine
 10
-155.0135086244365
 20
45.62436228881825
 30
0.0
 11
-145.0135098744364
 21
45.6293622886099
 31
0.0
  0
LINE
  5
EB
330
1F
100
AcDbEntity
  8
0
100
AcDbLine
 10
-145.0162878743207
 20
51.18536159411002
 30
0.0
 11
-55.01629912432048
 21
51.23036159223501
 31
0.0
  0
LINE
  5
EC
330
1F
100
AcDbEntity
  8
0
100
AcDbLine
 10
-55.01629912432048
 20
51.23036159223501
 30
0.0
 11
-55.01352112443622
 21
45.67436228673491
 31
0.0
  0
LINE
  5
ED
330
1F
100
AcDbEntity
  8
0
100
AcDbLine
 10
-55.01352112443622
 20
45.67436228673491
 30
0.0
 11
-45.01352237443616
 21
45.67936228652658
 31
0.0
  0
LINE
  5
EE
330
1F
100
AcDbEntity
  8
0
100
AcDbLine
 10
-45.01352237443616
 20
45.67936228652658
 30
0.0
 11
-45.0163003743204
 21
51.23536159202668
 31
0.0
  0
LINE
  5
EF
330
1F
100
AcDbEntity
  8
0
100
AcDbLine
 10
-45.0163003743204
 20
51.23536159202668
 30
0.0
 11
44.98368837567979
 21
51.28036159015168
 31
0.0
  0
LINE
  5
F0
330
1F
100
AcDbEntity
  8
0
100
AcDbLine
 10
44.98368837567979
 20
51.28036159015168
 30
0.0
 11
44.98646637556404
 21
45.72436228465158
 31
0.0
  0
LINE
  5
F1
330
1F
100
AcDbEntity
  8
0
100
AcDbLine
 10
54.98646512556415
 20
45.72936228444324
 30
0.0
 11
54.98368712567986
 21
51.28536158994335
 31
0.0
  0
LINE
  5
F2
330
1F
100
AcDbEntity
  8
0
100
AcDbLine
 10
44.98646637556404
 20
45.72436228465158
 30
0.0
 11
54.98646512556415
 21
45.72936228444324
 31
0.0
  0
LINE
  5
F3
330
1F
100
AcDbEntity
  8
0
100
AcDbLine
 10
54.98368712567986
 20
51.28536158994335
 30
0.0
 11
144.9836758756801
 21
51.33036158806834
 31
0.0
  0
LINE
  5
F4
330
1F
100
AcDbEntity
  8
0
100
AcDbLine
 10
144.9836758756801
 20
51.33036158806834
 30
0.0
 11
144.9864538755643
 21
45.77436228256825
 31
0.0
  0
LINE
  5
F5
330
1F
100
AcDbEntity
  8
0
100
AcDbLine
 10
144.9864538755643
 20
45.77436228256825
 30
0.0
 11
154.9864526255643
 21
45.77936228235991
 31
0.0
  0
LINE
  5
F6
330
1F
100
AcDbEntity
  8
0
100
AcDbLine
 10
154.9864526255643
 20
45.77936228235991
 30
0.0
 11
154.98367462568
 21
51.33536158786001
 31
0.0
  0
LINE
  5
F7
330
1F
100
AcDbEntity
  8
0
100
AcDbLine
 10
154.98367462568
 20
51.33536158786001
 30
0.0
 11
244.9836633756803
 21
51.38036158598502
 31
0.0
  0
LINE
  5
F8
330
1F
100
AcDbEntity
  8
0
100
AcDbLine
 10
244.9836633756803
 20
51.38036158598502
 30
0.0
 11
244.9864413755646
 21
45.82436228048491
 31
0.0
  0
LINE
  5
F9
330
1F
100
AcDbEntity
  8
0
100
AcDbLine
 10
244.9864413755646
 20
45.82436228048491
 30
0.0
 11
254.9864401255646
 21
45.82936228027658
 31
0.0
  0
LINE
  5
FA
330
1F
100
AcDbEntity
  8
0
100
AcDbLine
 10
254.9864401255646
 20
45.82936228027658
 30
0.0
 11
254.9836621256803
 21
51.38536158577668
 31
0.0
  0
LINE
  5
FB
330
1F
100
AcDbEntity
  8
0
100
AcDbLine
 10
254.9836621256803
 20
51.38536158577668
 30
0.0
 11
361.789648774931
 21
51.43876458355154
 31
0.0
  0
LINE
  5
FC
330
1F
100
AcDbEntity
  8
0
100
AcDbLine
 10
415.8794480165218
 20
-16.14619896607477
 30
0.0
 11
415.8644480171469
 21
13.85379728392517
 31
0.0
  0
LINE
  5
FD
330
1F
100
AcDbEntity
  8
0
100
AcDbLine
 10
415.8644480171469
 20
13.85379728392517
 30
0.0
 11
410.3084487116469
 21
13.85101928404094
 31
0.0
  0
LINE
  5
FE
330
1F
100
AcDbEntity
  8
0
100
AcDbLine
 10
410.3034487118553
 20
23.85101803404104
 30
0.0
 11
415.8594480173553
 21
23.85379603392527
 31
0.0
  0
LINE
  5
FF
330
1F
100
AcDbEntity
  8
0
100
AcDbLine
 10
415.8594480173553
 20
23.85379603392527
 30
0.0
 11
415.8444480179804
 21
53.85379228392538
 31
0.0
  0
LINE
  5
100
330
1F
100
AcDbEntity
  8
0
100
AcDbLine
 10
458.822817648548
 20
-14.87472712321971
 30
0.0
 11
454.822818148548
 21
-14.87672712313636
 31
0.0
  0
LINE
  5
101
330
1F
100
AcDbEntity
  8
0
100
AcDbLine
 10
464.3594419548555
 20
23.87804603291465
 30
0.0
 11
458.8034426493555
 21
23.87526803303043
 31
0.0
  0
LINE
  5
102
330
1F
100
AcDbEntity
  8
0
100
AcDbLine
 10
464.3644419546472
 20
13.87804728291455
 30
0.0
 11
464.3594419548555
 21
23.87804603291465
 31
0.0
  0
LINE
  5
103
330
1F
100
AcDbEntity
  8
0
100
AcDbLine
 10
458.8084426491472
 20
13.87526928303033
 30
0.0
 11
464.3644419546472
 21
13.87804728291455
 31
0.0
  0
LINE
  5
104
330
1F
100
AcDbEntity
  8
0
100
AcDbLine
 10
452.8234433985219
 20
-16.12772696684458
 30
0.0
 11
452.8244433984803
 21
-18.12772671684468
 31
0.0
  0
LINE
  5
105
330
1F
100
AcDbEntity
  8
0
100
AcDbLine
 10
415.8794480165218
 20
-16.14619896607477
 30
0.0
 11
452.8234433985219
 21
-16.12772696684458
 31
0.0
  0
LINE
  5
106
330
1F
100
AcDbEntity
  8
0
100
AcDbLine
 10
432.3136679590963
 20
59.41802758908208
 30
0.0
 11
432.3164459589805
 21
53.86202828358214
 31
0.0
  0
LINE
  5
107
330
1F
100
AcDbEntity
  8
0
100
AcDbLine
 10
442.3164447089806
 20
53.86702828337377
 30
0.0
 11
442.3136667090963
 21
59.42302758887371
 31
0.0
  0
LINE
  5
108
330
1F
100
AcDbEntity
  8
0
100
AcDbLine
 10
410.3084487116469
 20
13.85101928404094
 30
0.0
 11
410.3034487118553
 21
23.85101803404104
 31
0.0
  0
LINE
  5
109
330
1F
100
AcDbEntity
  8
0
100
AcDbLine
 10
458.7884426499806
 20
53.87526428303054
 30
0.0
 11
458.8034426493555
 21
23.87526803303043
 31
0.0
  0
LINE
  5
10A
330
1F
100
AcDbEntity
  8
0
100
AcDbLine
 10
415.8444480179804
 20
53.85379228392538
 30
0.0
 11
432.3164459589805
 21
53.86202828358214
 31
0.0
  0
LINE
  5
10B
330
1F
100
AcDbEntity
  8
0
100
AcDbLine
 10
458.8084426491472
 20
13.87526928303033
 30
0.0
 11
458.822817648548
 21
-14.87472712321971
 31
0.0
  0
LINE
  5
10C
330
1F
100
AcDbEntity
  8
0
100
AcDbLine
 10
442.3164447089806
 20
53.86702828337377
 30
0.0
 11
458.7884426499806
 21
53.87526428303054
 31
0.0
  0
LINE
  5
10D
330
1F
100
AcDbEntity
  8
0
100
AcDbLine
 10
442.3136667090963
 20
59.42302758887371
 30
0.0
 11
432.3136679590963
 21
59.41802758908208
 31
0.0
  0
LINE
  5
10E
330
1F
100
AcDbEntity
  8
0
100
AcDbLine
 10
454.822818148548
 20
-14.87672712313636
 30
0.0
 11
454.8244431484802
 21
-18.12672671688635
 31
0.0
  0
LINE
  5
10F
330
1F
100
AcDbEntity
  8
0
100
AcDbLine
 10
-254.8834681298547
 20
-214.4816052020992
 30
0.0
 11
-254.886246129739
 21
-208.9256058965992
 31
0.0
  0
LINE
  5
110
330
1F
100
AcDbEntity
  8
0
100
AcDbLine
 10
-244.8862473797388
 20
-208.9206058968076
 30
0.0
 11
-244.8834693798546
 21
-214.4766052023075
 31
0.0
  0
LINE
  5
111
330
1F
100
AcDbEntity
  8
0
100
AcDbLine
 10
-254.886246129739
 20
-208.9256058965992
 30
0.0
 11
-244.8862473797388
 21
-208.9206058968076
 31
0.0
  0
LINE
  5
112
330
1F
100
AcDbEntity
  8
0
100
AcDbLine
 10
-244.8834693798546
 20
-214.4766052023075
 30
0.0
 11
-154.8834806298545
 21
-214.4316052041824
 31
0.0
  0
LINE
  5
113
330
1F
100
AcDbEntity
  8
0
100
AcDbLine
 10
-54.88627112973843
 20
-208.8256059007659
 30
0.0
 11
-44.88627237973849
 21
-208.8206059009742
 31
0.0
  0
LINE
  5
114
330
1F
100
AcDbEntity
  8
0
100
AcDbLine
 10
-44.88627237973849
 20
-208.8206059009742
 30
0.0
 11
-44.88349437985425
 21
-214.3766052064741
 31
0.0
  0
LINE
  5
115
330
1F
100
AcDbEntity
  8
0
100
AcDbLine
 10
-154.8862586297387
 20
-208.8756058986825
 30
0.0
 11
-144.8862598797384
 21
-208.8706058988909
 31
0.0
  0
LINE
  5
116
330
1F
100
AcDbEntity
  8
0
100
AcDbLine
 10
-144.8834818798541
 20
-214.4266052043908
 30
0.0
 11
-54.88349312985419
 21
-214.3816052062658
 31
0.0
  0
LINE
  5
117
330
1F
100
AcDbEntity
  8
0
100
AcDbLine
 10
-54.88349312985419
 20
-214.3816052062658
 30
0.0
 11
-54.88627112973843
 21
-208.8256059007659
 31
0.0
  0
LINE
  5
118
330
1F
100
AcDbEntity
  8
0
100
AcDbLine
 10
-144.8862598797384
 20
-208.8706058988909
 30
0.0
 11
-144.8834818798541
 21
-214.4266052043908
 31
0.0
  0
LINE
  5
119
330
1F
100
AcDbEntity
  8
0
100
AcDbLine
 10
-154.8834806298545
 20
-214.4316052041824
 30
0.0
 11
-154.8862586297387
 21
-208.8756058986825
 31
0.0
  0
LINE
  5
11A
330
1F
100
AcDbEntity
  8
0
100
AcDbLine
 10
-44.88349437985425
 20
-214.3766052064741
 30
0.0
 11
45.11649437014613
 21
-214.3316052083491
 31
0.0
  0
LINE
  5
11B
330
1F
100
AcDbEntity
  8
0
100
AcDbLine
 10
55.11371512026217
 20
-208.7706059030575
 30
0.0
 11
55.11649312014638
 21
-214.3266052085575
 31
0.0
  0
LINE
  5
11C
330
1F
100
AcDbEntity
  8
0
100
AcDbLine
 10
55.11649312014638
 20
-214.3266052085575
 30
0.0
 11
145.1164818701464
 21
-214.2816052104324
 31
0.0
  0
LINE
  5
11D
330
1F
100
AcDbEntity
  8
0
100
AcDbLine
 10
145.1164818701464
 20
-214.2816052104324
 30
0.0
 11
145.1137038702622
 21
-208.7256059049325
 31
0.0
  0
LINE
  5
11E
330
1F
100
AcDbEntity
  8
0
100
AcDbLine
 10
145.1137038702622
 20
-208.7256059049325
 30
0.0
 11
155.1137026202621
 21
-208.7206059051408
 31
0.0
  0
LINE
  5
11F
330
1F
100
AcDbEntity
  8
0
100
AcDbLine
 10
45.11371637026192
 20
-208.7756059028492
 30
0.0
 11
55.11371512026217
 21
-208.7706059030575
 31
0.0
  0
LINE
  5
120
330
1F
100
AcDbEntity
  8
0
100
AcDbLine
 10
45.11649437014613
 20
-214.3316052083491
 30
0.0
 11
45.11371637026192
 21
-208.7756059028492
 31
0.0
  0
LINE
  5
121
330
1F
100
AcDbEntity
  8
0
100
AcDbLine
 10
155.1164806201463
 20
-214.2766052106408
 30
0.0
 11
245.1164693701467
 21
-214.2316052125158
 31
0.0
  0
LINE
  5
122
330
1F
100
AcDbEntity
  8
0
100
AcDbLine
 10
245.1164693701467
 20
-214.2316052125158
 30
0.0
 11
245.1136913702624
 21
-208.6756059070158
 31
0.0
  0
LINE
  5
123
330
1F
100
AcDbEntity
  8
0
100
AcDbLine
 10
155.1137026202621
 20
-208.7206059051408
 30
0.0
 11
155.1164806201463
 21
-214.2766052106408
 31
0.0
  0
LINE
  5
124
330
1F
100
AcDbEntity
  8
0
100
AcDbLine
 10
-302.6774761569376
 20
-182.4774982046034
 30
0.0
 11
-302.6724761571459
 21
-192.4774969546035
 31
0.0
  0
LINE
  5
125
330
1F
100
AcDbEntity
  8
0
100
AcDbLine
 10
245.1136913702624
 20
-208.6756059070158
 30
0.0
 11
255.1136901202623
 21
-208.6706059072242
 31
0.0
  0
LINE
  5
126
330
1F
100
AcDbEntity
  8
0
100
AcDbLine
 10
-297.1164768516459
 20
-192.4747189547192
 30
0.0
 11
-297.1214768514376
 21
-182.4747202047192
 31
0.0
  0
LINE
  5
127
330
1F
100
AcDbEntity
  8
0
100
AcDbLine
 10
-297.1214768514376
 20
-182.4747202047192
 30
0.0
 11
-302.6774761569376
 21
-182.4774982046034
 31
0.0
  0
LINE
  5
128
330
1F
100
AcDbEntity
  8
0
100
AcDbLine
 10
-202.6774886569371
 20
-182.4274982066867
 30
0.0
 11
-202.6724886571455
 21
-192.4274969566868
 31
0.0
  0
LINE
  5
129
330
1F
100
AcDbEntity
  8
0
100
AcDbLine
 10
255.1136901202623
 20
-208.6706059072242
 30
0.0
 11
255.1164681201465
 21
-214.2266052127241
 31
0.0
  0
LINE
  5
12A
330
1F
100
AcDbEntity
  8
0
100
AcDbLine
 10
-302.6724761571459
 20
-192.4774969546035
 30
0.0
 11
-297.1164768516459
 21
-192.4747189547192
 31
0.0
  0
LINE
  5
12B
330
1F
100
AcDbEntity
  8
0
100
AcDbLine
 10
2.878485648563325
 20
-182.3247202109691
 30
0.0
 11
-2.677513656936603
 21
-182.3274982108534
 31
0.0
  0
LINE
  5
12C
330
1F
100
AcDbEntity
  8
0
100
AcDbLine
 10
-97.11650185164525
 20
-192.3747189588859
 30
0.0
 11
-97.12150185143693
 21
-182.3747202088859
 31
0.0
  0
LINE
  5
12D
330
1F
100
AcDbEntity
  8
0
100
AcDbLine
 10
-102.6725011571452
 20
-192.3774969587701
 30
0.0
 11
-97.11650185164525
 21
-192.3747189588859
 31
0.0
  0
LINE
  5
12E
330
1F
100
AcDbEntity
  8
0
100
AcDbLine
 10
2.883485648355017
 20
-192.3247189609692
 30
0.0
 11
2.878485648563325
 21
-182.3247202109691
 31
0.0
  0
LINE
  5
12F
330
1F
100
AcDbEntity
  8
0
100
AcDbLine
 10
97.32247384306366
 20
-182.2774982129367
 30
0.0
 11
97.32747384285526
 21
-192.2774969629367
 31
0.0
  0
LINE
  5
130
330
1F
100
AcDbEntity
  8
0
100
AcDbLine
 10
-2.677513656936603
 20
-182.3274982108534
 30
0.0
 11
-2.672513657144912
 21
-192.3274969608534
 31
0.0
  0
LINE
  5
131
330
1F
100
AcDbEntity
  8
0
100
AcDbLine
 10
-2.672513657144912
 20
-192.3274969608534
 30
0.0
 11
2.883485648355017
 21
-192.3247189609692
 31
0.0
  0
LINE
  5
132
330
1F
100
AcDbEntity
  8
0
100
AcDbLine
 10
102.8784731485636
 20
-182.2747202130525
 30
0.0
 11
97.32247384306366
 21
-182.2774982129367
 31
0.0
  0
LINE
  5
133
330
1F
100
AcDbEntity
  8
0
100
AcDbLine
 10
-202.6724886571455
 20
-192.4274969566868
 30
0.0
 11
-197.1164893516455
 21
-192.4247189568025
 31
0.0
  0
LINE
  5
134
330
1F
100
AcDbEntity
  8
0
100
AcDbLine
 10
-197.1164893516455
 20
-192.4247189568025
 30
0.0
 11
-197.1214893514372
 21
-182.4247202068025
 31
0.0
  0
LINE
  5
135
330
1F
100
AcDbEntity
  8
0
100
AcDbLine
 10
-97.12150185143693
 20
-182.3747202088859
 30
0.0
 11
-102.6775011569369
 21
-182.3774982087701
 31
0.0
  0
LINE
  5
136
330
1F
100
AcDbEntity
  8
0
100
AcDbLine
 10
-197.1214893514372
 20
-182.4247202068025
 30
0.0
 11
-202.6774886569371
 21
-182.4274982066867
 31
0.0
  0
LINE
  5
137
330
1F
100
AcDbEntity
  8
0
100
AcDbLine
 10
-102.6775011569369
 20
-182.3774982087701
 30
0.0
 11
-102.6725011571452
 21
-192.3774969587701
 31
0.0
  0
LINE
  5
138
330
1F
100
AcDbEntity
  8
0
100
AcDbLine
 10
197.3274613428555
 20
-192.22749696502
 30
0.0
 11
202.8834606483555
 21
-192.2247189651358
 31
0.0
  0
LINE
  5
139
330
1F
100
AcDbEntity
  8
0
100
AcDbLine
 10
297.3274488428558
 20
-192.1774969671034
 30
0.0
 11
302.8834481483557
 21
-192.1747189672192
 31
0.0
  0
LINE
  5
13A
330
1F
100
AcDbEntity
  8
0
100
AcDbLine
 10
202.8834606483555
 20
-192.2247189651358
 30
0.0
 11
202.8784606485638
 21
-182.2247202151358
 31
0.0
  0
LINE
  5
13B
330
1F
100
AcDbEntity
  8
0
100
AcDbLine
 10
-361.7164827779786
 20
-160.4790149568738
 30
0.0
 11
-361.7054687784375
 21
-182.507012203374
 31
0.0
  0
LINE
  5
13C
330
1F
100
AcDbEntity
  8
0
100
AcDbLine
 10
297.3224488430642
 20
-182.1774982171034
 30
0.0
 11
297.3274488428558
 21
-192.1774969671034
 31
0.0
  0
LINE
  5
13D
330
1F
100
AcDbEntity
  8
0
100
AcDbLine
 10
202.8784606485638
 20
-182.2247202151358
 30
0.0
 11
197.3224613430639
 21
-182.2274982150201
 31
0.0
  0
LINE
  5
13E
330
1F
100
AcDbEntity
  8
0
100
AcDbLine
 10
302.8834481483557
 20
-192.1747189672192
 30
0.0
 11
302.8784481485641
 21
-182.1747202172192
 31
0.0
  0
LINE
  5
13F
330
1F
100
AcDbEntity
  8
0
100
AcDbLine
 10
97.32747384285526
 20
-192.2774969629367
 30
0.0
 11
102.8834731483552
 21
-192.2747189630525
 31
0.0
  0
LINE
  5
140
330
1F
100
AcDbEntity
  8
0
100
AcDbLine
 10
302.8784481485641
 20
-182.1747202172192
 30
0.0
 11
297.3224488430642
 21
-182.1774982171034
 31
0.0
  0
LINE
  5
141
330
1F
100
AcDbEntity
  8
0
100
AcDbLine
 10
102.8834731483552
 20
-192.2747189630525
 30
0.0
 11
102.8784731485636
 21
-182.2747202130525
 31
0.0
  0
LINE
  5
142
330
1F
100
AcDbEntity
  8
0
100
AcDbLine
 10
197.3224613430639
 20
-182.2274982150201
 30
0.0
 11
197.3274613428555
 21
-192.22749696502
 31
0.0
  0
LINE
  5
143
330
1F
100
AcDbEntity
  8
0
100
AcDbLine
 10
-361.7004687786459
 20
-192.507010953374
 30
0.0
 11
-361.6894547791048
 21
-214.535008199874
 31
0.0
  0
LINE
  5
144
330
1F
100
AcDbEntity
  8
0
100
AcDbLine
 10
356.3554414643561
 20
-192.1479829683334
 30
0.0
 11
356.3504414645645
 21
-182.1479842183334
 31
0.0
  0
LINE
  5
145
330
1F
100
AcDbEntity
  8
0
100
AcDbLine
 10
356.3504414645645
 20
-182.1479842183334
 30
0.0
 11
361.9064407700645
 21
-182.1452062184491
 31
0.0
  0
LINE
  5
146
330
1F
100
AcDbEntity
  8
0
100
AcDbLine
 10
361.9114407698561
 20
-192.1452049684492
 30
0.0
 11
356.3554414643561
 21
-192.1479829683334
 31
0.0
  0
LINE
  5
147
330
1F
100
AcDbEntity
  8
0
100
AcDbLine
 10
-361.7004687786459
 20
-192.507010953374
 30
0.0
 11
-356.1444694731459
 21
-192.5042329534897
 31
0.0
  0
LINE
  5
148
330
1F
100
AcDbEntity
  8
0
100
AcDbLine
 10
155.0922306211567
 20
-165.7766112731406
 30
0.0
 11
155.0894526212724
 21
-160.2206119676405
 31
0.0
  0
LINE
  5
149
330
1F
100
AcDbEntity
  8
0
100
AcDbLine
 10
255.1164681201465
 20
-214.2266052127241
 30
0.0
 11
361.9224547693972
 21
-214.1732022149493
 31
0.0
  0
LINE
  5
14A
330
1F
100
AcDbEntity
  8
0
100
AcDbLine
 10
361.8954267705234
 20
-160.117208971949
 30
0.0
 11
255.0894401212731
 21
-160.1706119697238
 31
0.0
  0
LINE
  5
14B
330
1F
100
AcDbEntity
  8
0
100
AcDbLine
 10
-361.6894547791048
 20
-214.535008199874
 30
0.0
 11
-254.8834681298547
 21
-214.4816052020992
 31
0.0
  0
LINE
  5
14C
330
1F
100
AcDbEntity
  8
0
100
AcDbLine
 10
245.0922193711571
 20
-165.7316112750156
 30
0.0
 11
255.0922181211574
 21
-165.726611275224
 31
0.0
  0
LINE
  5
14D
330
1F
100
AcDbEntity
  8
0
100
AcDbLine
 10
145.0922318711569
 20
-165.7816112729323
 30
0.0
 11
155.0922306211567
 21
-165.7766112731406
 31
0.0
  0
LINE
  5
14E
330
1F
100
AcDbEntity
  8
0
100
AcDbLine
 10
245.0894413712728
 20
-160.1756119695155
 30
0.0
 11
245.0922193711571
 21
-165.7316112750156
 31
0.0
  0
LINE
  5
14F
330
1F
100
AcDbEntity
  8
0
100
AcDbLine
 10
145.0894538712726
 20
-160.2256119674321
 30
0.0
 11
145.0922318711569
 21
-165.7816112729323
 31
0.0
  0
LINE
  5
150
330
1F
100
AcDbEntity
  8
0
100
AcDbLine
 10
255.0922181211574
 20
-165.726611275224
 30
0.0
 11
255.0894401212731
 21
-160.1706119697238
 31
0.0
  0
LINE
  5
151
330
1F
100
AcDbEntity
  8
0
100
AcDbLine
 10
245.0894413712728
 20
-160.1756119695155
 30
0.0
 11
155.0894526212724
 21
-160.2206119676405
 31
0.0
  0
LINE
  5
152
330
1F
100
AcDbEntity
  8
0
100
AcDbLine
 10
-54.91052112872801
 20
-160.3256119632656
 30
0.0
 11
-144.910509878728
 21
-160.3706119613906
 31
0.0
  0
LINE
  5
153
330
1F
100
AcDbEntity
  8
0
100
AcDbLine
 10
55.09224312115685
 20
-165.8266112710574
 30
0.0
 11
55.08946512127255
 21
-160.2706119655573
 31
0.0
  0
LINE
  5
154
330
1F
100
AcDbEntity
  8
0
100
AcDbLine
 10
145.0894538712726
 20
-160.2256119674321
 30
0.0
 11
55.08946512127255
 21
-160.2706119655573
 31
0.0
  0
LINE
  5
155
330
1F
100
AcDbEntity
  8
0
100
AcDbLine
 10
-154.907730628844
 20
-165.9316112666823
 30
0.0
 11
-154.9105086287283
 21
-160.3756119611822
 31
0.0
  0
LINE
  5
156
330
1F
100
AcDbEntity
  8
0
100
AcDbLine
 10
-44.90774437884346
 20
-165.876611268974
 30
0.0
 11
-44.91052237872771
 21
-160.3206119634739
 31
0.0
  0
LINE
  5
157
330
1F
100
AcDbEntity
  8
0
100
AcDbLine
 10
-154.9105086287283
 20
-160.3756119611822
 30
0.0
 11
-244.9104973787284
 21
-160.4206119593072
 31
0.0
  0
LINE
  5
158
330
1F
100
AcDbEntity
  8
0
100
AcDbLine
 10
45.0922443711566
 20
-165.831611270849
 30
0.0
 11
55.09224312115685
 21
-165.8266112710574
 31
0.0
  0
LINE
  5
159
330
1F
100
AcDbEntity
  8
0
100
AcDbLine
 10
-356.1494694729376
 20
-182.5042342034897
 30
0.0
 11
-361.7054687784375
 21
-182.507012203374
 31
0.0
  0
LINE
  5
15A
330
1F
100
AcDbEntity
  8
0
100
AcDbLine
 10
-254.9077181288443
 20
-165.981611264599
 30
0.0
 11
-254.9104961287285
 21
-160.4256119590989
 31
0.0
  0
LINE
  5
15B
330
1F
100
AcDbEntity
  8
0
100
AcDbLine
 10
-54.90774312884376
 20
-165.8816112687657
 30
0.0
 11
-44.90774437884346
 21
-165.876611268974
 31
0.0
  0
LINE
  5
15C
330
1F
100
AcDbEntity
  8
0
100
AcDbLine
 10
-144.910509878728
 20
-160.3706119613906
 30
0.0
 11
-144.9077318788437
 21
-165.9266112668907
 31
0.0
  0
LINE
  5
15D
330
1F
100
AcDbEntity
  8
0
100
AcDbLine
 10
-54.91052112872801
 20
-160.3256119632656
 30
0.0
 11
-54.90774312884376
 21
-165.8816112687657
 31
0.0
  0
LINE
  5
15E
330
1F
100
AcDbEntity
  8
0
100
AcDbLine
 10
45.0894663712723
 20
-160.2756119653489
 30
0.0
 11
45.0922443711566
 21
-165.831611270849
 31
0.0
  0
LINE
  5
15F
330
1F
100
AcDbEntity
  8
0
100
AcDbLine
 10
-144.9077318788437
 20
-165.9266112668907
 30
0.0
 11
-154.907730628844
 21
-165.9316112666823
 31
0.0
  0
LINE
  5
160
330
1F
100
AcDbEntity
  8
0
100
AcDbLine
 10
-244.9077193788442
 20
-165.9766112648073
 30
0.0
 11
-254.9077181288443
 21
-165.981611264599
 31
0.0
  0
LINE
  5
161
330
1F
100
AcDbEntity
  8
0
100
AcDbLine
 10
-244.9104973787284
 20
-160.4206119593072
 30
0.0
 11
-244.9077193788442
 21
-165.9766112648073
 31
0.0
  0
LINE
  5
162
330
1F
100
AcDbEntity
  8
0
100
AcDbLine
 10
-356.1444694731459
 20
-192.5042329534897
 30
0.0
 11
-356.1494694729376
 21
-182.5042342034897
 31
0.0
  0
LINE
  5
163
330
1F
100
AcDbEntity
  8
0
100
AcDbLine
 10
45.0894663712723
 20
-160.2756119653489
 30
0.0
 11
-44.91052237872771
 21
-160.3206119634739
 31
0.0
  0
LINE
  5
164
330
1F
100
AcDbEntity
  8
0
100
AcDbLine
 10
361.9224547693972
 20
-214.1732022149493
 30
0.0
 11
361.9114407698561
 21
-192.1452049684492
 31
0.0
  0
LINE
  5
165
330
1F
100
AcDbEntity
  8
0
100
AcDbLine
 10
361.9064407700645
 20
-182.1452062184491
 30
0.0
 11
361.8954267705234
 21
-160.117208971949
 31
0.0
  0
LINE
  5
166
330
1F
100
AcDbEntity
  8
0
100
AcDbLine
 10
-254.9104961287285
 20
-160.4256119590989
 30
0.0
 11
-361.7164827779786
 21
-160.4790149568738
 31
0.0
  0
LINE
  5
167
330
1F
100
AcDbEntity
  8
0
100
AcDbLine
 10
-326.7849231432104
 20
-189.5895528166013
 30
0.0
 11
-326.7870231431229
 21
-185.3895533416012
 31
0.0
  0
LINE
  5
168
330
1F
100
AcDbEntity
  8
0
100
AcDbLine
 10
-326.7870231431229
 20
-185.3895533416012
 30
0.0
 11
-332.037022486873
 21
-185.3921783414919
 31
0.0
  0
LINE
  5
169
330
1F
100
AcDbEntity
  8
0
100
AcDbLine
 10
-332.037022486873
 20
-185.3921783414919
 30
0.0
 11
-332.0349224869605
 21
-189.5921778164919
 31
0.0
  0
LINE
  5
16A
330
1F
100
AcDbEntity
  8
0
100
AcDbLine
 10
-332.0349224869605
 20
-189.5921778164919
 30
0.0
 11
-326.7849231432104
 21
-189.5895528166013
 31
0.0
  0
LINE
  5
16B
330
1F
100
AcDbEntity
  8
0
100
AcDbLine
 10
415.8018920197536
 20
138.9657816449256
 30
0.0
 11
415.7868920203787
 21
168.9657778949255
 31
0.0
  0
LINE
  5
16C
330
1F
100
AcDbEntity
  8
0
100
AcDbLine
 10
415.7868920203787
 20
168.9657778949255
 30
0.0
 11
410.2308927148787
 21
168.9629998950413
 31
0.0
  0
LINE
  5
16D
330
1F
100
AcDbEntity
  8
0
100
AcDbLine
 10
410.2258927150871
 20
178.9629986450414
 30
0.0
 11
415.7818920205871
 21
178.9657766449256
 31
0.0
  0
LINE
  5
16E
330
1F
100
AcDbEntity
  8
0
100
AcDbLine
 10
415.7818920205871
 20
178.9657766449256
 30
0.0
 11
415.7668920212122
 21
208.9657728949257
 31
0.0
  0
LINE
  5
16F
330
1F
100
AcDbEntity
  8
0
100
AcDbLine
 10
458.7452616517798
 20
140.2372534877806
 30
0.0
 11
454.7452621517798
 21
140.235253487864
 31
0.0
  0
LINE
  5
170
330
1F
100
AcDbEntity
  8
0
100
AcDbLine
 10
464.2818859580873
 20
178.990026643915
 30
0.0
 11
458.7258866525873
 21
178.9872486440308
 31
0.0
  0
LINE
  5
171
330
1F
100
AcDbEntity
  8
0
100
AcDbLine
 10
464.2868859578791
 20
168.9900278939149
 30
0.0
 11
464.2818859580873
 21
178.990026643915
 31
0.0
  0
LINE
  5
172
330
1F
100
AcDbEntity
  8
0
100
AcDbLine
 10
458.730886652379
 20
168.9872498940307
 30
0.0
 11
464.2868859578791
 21
168.9900278939149
 31
0.0
  0
LINE
  5
173
330
1F
100
AcDbEntity
  8
0
100
AcDbLine
 10
452.7458874017537
 20
138.9842536441557
 30
0.0
 11
452.7468874017121
 21
136.9842538941556
 31
0.0
  0
LINE
  5
174
330
1F
100
AcDbEntity
  8
0
100
AcDbLine
 10
415.8018920197536
 20
138.9657816449256
 30
0.0
 11
452.7458874017537
 21
138.9842536441557
 31
0.0
  0
LINE
  5
175
330
1F
100
AcDbEntity
  8
0
100
AcDbLine
 10
432.2361119623281
 20
214.5300082000824
 30
0.0
 11
432.2388899622123
 21
208.9740088945825
 31
0.0
  0
LINE
  5
176
330
1F
100
AcDbEntity
  8
0
100
AcDbLine
 10
442.2361107123281
 20
214.535008199874
 30
0.0
 11
432.2361119623281
 21
214.5300082000824
 31
0.0
  0
LINE
  5
177
330
1F
100
AcDbEntity
  8
0
100
AcDbLine
 10
442.2388887122124
 20
208.9790088943741
 30
0.0
 11
442.2361107123281
 21
214.535008199874
 31
0.0
  0
LINE
  5
178
330
1F
100
AcDbEntity
  8
0
100
AcDbLine
 10
410.2308927148787
 20
168.9629998950413
 30
0.0
 11
410.2258927150871
 21
178.9629986450414
 31
0.0
  0
LINE
  5
179
330
1F
100
AcDbEntity
  8
0
100
AcDbLine
 10
458.7108866532125
 20
208.9872448940309
 30
0.0
 11
458.7258866525873
 21
178.9872486440308
 31
0.0
  0
LINE
  5
17A
330
1F
100
AcDbEntity
  8
0
100
AcDbLine
 10
415.7668920212122
 20
208.9657728949257
 30
0.0
 11
432.2388899622123
 21
208.9740088945825
 31
0.0
  0
LINE
  5
17B
330
1F
100
AcDbEntity
  8
0
100
AcDbLine
 10
454.7468871517121
 20
136.985253894114
 30
0.0
 11
452.7468874017121
 21
136.9842538941556
 31
0.0
  0
LINE
  5
17C
330
1F
100
AcDbEntity
  8
0
100
AcDbLine
 10
458.730886652379
 20
168.9872498940307
 30
0.0
 11
458.7452616517798
 21
140.2372534877806
 31
0.0
  0
LINE
  5
17D
330
1F
100
AcDbEntity
  8
0
100
AcDbLine
 10
442.2388887122124
 20
208.9790088943741
 30
0.0
 11
458.7108866532125
 21
208.9872448940309
 31
0.0
  0
LINE
  5
17E
330
1F
100
AcDbEntity
  8
0
100
AcDbLine
 10
454.7452621517798
 20
140.235253487864
 30
0.0
 11
454.7468871517121
 21
136.985253894114
 31
0.0
  0
LINE
  5
17F
330
1F
100
AcDbEntity
  8
0
100
AcDbLine
 10
404.7336434069308
 20
51.46023658265687
 30
0.0
 11
388.2616454659306
 21
51.45200058300006
 31
0.0
  0
LINE
  5
180
330
1F
100
AcDbEntity
  8
0
100
AcDbLine
 10
404.6548934102123
 20
208.9602168951572
 30
0.0
 11
404.6698934095872
 21
178.9602206451572
 31
0.0
  0
LINE
  5
181
330
1F
100
AcDbEntity
  8
0
100
AcDbLine
 10
361.7108987782123
 20
208.938744896052
 30
0.0
 11
378.1828967192121
 21
208.9469808957088
 31
0.0
  0
LINE
  5
182
330
1F
100
AcDbEntity
  8
0
100
AcDbLine
 10
378.1828967192121
 20
208.9469808957088
 30
0.0
 11
378.1801187193279
 21
214.5029802012088
 31
0.0
  0
LINE
  5
183
330
1F
100
AcDbEntity
  8
0
100
AcDbLine
 10
378.1801187193279
 20
214.5029802012088
 30
0.0
 11
388.1801174693279
 21
214.5079802010004
 31
0.0
  0
LINE
  5
184
330
1F
100
AcDbEntity
  8
0
100
AcDbLine
 10
388.1828954692122
 20
208.9519808955005
 30
0.0
 11
404.6548934102123
 21
208.9602168951572
 31
0.0
  0
LINE
  5
185
330
1F
100
AcDbEntity
  8
0
100
AcDbLine
 10
388.1801174693279
 20
214.5079802010004
 30
0.0
 11
388.1828954692122
 21
208.9519808955005
 31
0.0
  0
LINE
  5
186
330
1F
100
AcDbEntity
  8
0
100
AcDbLine
 10
378.2616467159306
 20
51.44700058320841
 30
0.0
 11
361.789648774931
 21
51.43876458355154
 31
0.0
  0
LINE
  5
187
330
1F
100
AcDbEntity
  8
0
100
AcDbLine
 10
378.2616467159306
 20
51.44700058320841
 30
0.0
 11
378.2644247158148
 21
45.89100127770836
 31
0.0
  0
LINE
  5
188
330
1F
100
AcDbEntity
  8
0
100
AcDbLine
 10
378.2644247158148
 20
45.89100127770836
 30
0.0
 11
388.2644234658148
 21
45.89600127750001
 31
0.0
  0
LINE
  5
189
330
1F
100
AcDbEntity
  8
0
100
AcDbLine
 10
388.2644234658148
 20
45.89600127750001
 30
0.0
 11
388.2616454659306
 21
51.45200058300006
 31
0.0
  0
LINE
  5
18A
330
1F
100
AcDbEntity
  8
0
100
AcDbLine
 10
404.6698934095872
 20
178.9602206451572
 30
0.0
 11
410.2258927150871
 21
178.9629986450414
 31
0.0
  0
LINE
  5
18B
330
1F
100
AcDbEntity
  8
0
100
AcDbLine
 10
404.6748934093789
 20
168.9602218951571
 30
0.0
 11
404.7136434077642
 21
91.46023158265695
 31
0.0
  0
LINE
  5
18C
330
1F
100
AcDbEntity
  8
0
100
AcDbLine
 10
410.2308927148787
 20
168.9629998950413
 30
0.0
 11
404.6748934093789
 21
168.9602218951571
 31
0.0
  0
LINE
  5
18D
330
1F
100
AcDbEntity
  8
0
100
AcDbLine
 10
404.7136434077642
 20
91.46023158265695
 30
0.0
 11
410.2696427132641
 21
91.46300958254119
 31
0.0
  0
LINE
  5
18E
330
1F
100
AcDbEntity
  8
0
100
AcDbLine
 10
410.2696427132641
 20
91.46300958254119
 30
0.0
 11
410.2746427130558
 21
81.46301083254113
 31
0.0
  0
LINE
  5
18F
330
1F
100
AcDbEntity
  8
0
100
AcDbLine
 10
404.7186434075558
 20
81.46023283265689
 30
0.0
 11
404.7336434069308
 21
51.46023658265687
 31
0.0
  0
LINE
  5
190
330
1F
100
AcDbEntity
  8
0
100
AcDbLine
 10
410.2746427130558
 20
81.46301083254113
 30
0.0
 11
404.7186434075558
 21
81.46023283265689
 31
0.0
  0
LINE
  5
191
330
1F
100
AcDbEntity
  8
0
100
AcDbLine
 10
-404.7242274073225
 20
-33.00050289347868
 30
0.0
 11
-404.7392274066974
 21
-3.000506643478561
 31
0.0
  0
LINE
  5
192
330
1F
100
AcDbEntity
  8
0
100
AcDbLine
 10
-404.704227408156
 20
-73.00049789347871
 30
0.0
 11
-404.7192274075309
 21
-43.00050164347877
 31
0.0
  0
LINE
  5
193
330
1F
100
AcDbEntity
  8
0
100
AcDbLine
 10
-404.7192274075309
 20
-43.00050164347877
 30
0.0
 11
-410.2752267130309
 21
-43.00327964336301
 31
0.0
  0
LINE
  5
194
330
1F
100
AcDbEntity
  8
0
100
AcDbLine
 10
-365.7962322746556
 20
-0.9810348942901405
 30
0.0
 11
-365.7946072747233
 21
-4.231034488040135
 31
0.0
  0
LINE
  5
195
330
1F
100
AcDbEntity
  8
0
100
AcDbLine
 10
-410.2752267130309
 20
-43.00327964336301
 30
0.0
 11
-410.2802267128226
 21
-33.00328089336291
 31
0.0
  0
LINE
  5
196
330
1F
100
AcDbEntity
  8
0
100
AcDbLine
 10
-361.7602327761558
 20
-72.97902589437355
 30
0.0
 11
-378.2322307171557
 21
-72.98726189403031
 31
0.0
  0
LINE
  5
197
330
1F
100
AcDbEntity
  8
0
100
AcDbLine
 10
-367.7952320246973
 20
-2.98203464424838
 30
0.0
 11
-404.7392274066974
 21
-3.000506643478561
 31
0.0
  0
LINE
  5
198
330
1F
100
AcDbEntity
  8
0
100
AcDbLine
 10
-365.7946072747233
 20
-4.231034488040135
 30
0.0
 11
-361.7946077747233
 21
-4.229034488123478
 31
0.0
  0
LINE
  5
199
330
1F
100
AcDbEntity
  8
0
100
AcDbLine
 10
-367.7962320246556
 20
-0.9820348942484629
 30
0.0
 11
-367.7952320246973
 21
-2.98203464424838
 31
0.0
  0
LINE
  5
19A
330
1F
100
AcDbEntity
  8
0
100
AcDbLine
 10
-361.7946077747233
 20
-4.229034488123478
 30
0.0
 11
-361.7802327753224
 21
-32.97903089437352
 31
0.0
  0
LINE
  5
19B
330
1F
100
AcDbEntity
  8
0
100
AcDbLine
 10
-367.7962320246556
 20
-0.9820348942484629
 30
0.0
 11
-365.7962322746556
 21
-0.9810348942901405
 31
0.0
  0
LINE
  5
19C
330
1F
100
AcDbEntity
  8
0
100
AcDbLine
 10
-410.2802267128226
 20
-33.00328089336291
 30
0.0
 11
-404.7242274073225
 21
-33.00050289347868
 31
0.0
  0
LINE
  5
19D
330
1F
100
AcDbEntity
  8
0
100
AcDbLine
 10
-388.2322294671557
 20
-72.99226189382193
 30
0.0
 11
-404.704227408156
 21
-73.00049789347871
 31
0.0
  0
LINE
  5
19E
330
1F
100
AcDbEntity
  8
0
100
AcDbLine
 10
-388.2322294671557
 20
-72.99226189382193
 30
0.0
 11
-388.2294514672715
 21
-78.54826119932206
 31
0.0
  0
LINE
  5
19F
330
1F
100
AcDbEntity
  8
0
100
AcDbLine
 10
-388.2294514672715
 20
-78.54826119932206
 30
0.0
 11
-378.2294527172715
 21
-78.54326119953043
 31
0.0
  0
LINE
  5
1A0
330
1F
100
AcDbEntity
  8
0
100
AcDbLine
 10
-378.2294527172715
 20
-78.54326119953043
 30
0.0
 11
-378.2322307171557
 21
-72.98726189403031
 31
0.0
  0
LINE
  5
1A1
330
1F
100
AcDbEntity
  8
0
100
AcDbLine
 10
-361.7752327755307
 20
-42.97902964437361
 30
0.0
 11
-361.7602327761558
 21
-72.97902589437355
 31
0.0
  0
LINE
  5
1A2
330
1F
100
AcDbEntity
  8
0
100
AcDbLine
 10
-361.7752327755307
 20
-42.97902964437361
 30
0.0
 11
-356.2192334700307
 21
-42.97625164448939
 31
0.0
  0
LINE
  5
1A3
330
1F
100
AcDbEntity
  8
0
100
AcDbLine
 10
-356.2192334700307
 20
-42.97625164448939
 30
0.0
 11
-356.2242334698224
 21
-32.97625289448929
 31
0.0
  0
LINE
  5
1A4
330
1F
100
AcDbEntity
  8
0
100
AcDbLine
 10
-356.2242334698224
 20
-32.97625289448929
 30
0.0
 11
-361.7802327753224
 21
-32.97903089437352
 31
0.0
  0
LINE
  5
1A5
330
1F
100
AcDbEntity
  8
0
100
AcDbLine
 10
-458.716470652979
 20
-160.5275149548523
 30
0.0
 11
-458.7314706523539
 21
-130.5275187048524
 31
0.0
  0
LINE
  5
1A6
330
1F
100
AcDbEntity
  8
0
100
AcDbLine
 10
-458.7314706523539
 20
-130.5275187048524
 30
0.0
 11
-464.2874699578539
 21
-130.5302967047366
 31
0.0
  0
LINE
  5
1A7
330
1F
100
AcDbEntity
  8
0
100
AcDbLine
 10
-464.2924699576455
 20
-120.5302979547365
 30
0.0
 11
-458.7364706521454
 21
-120.5275199548523
 31
0.0
  0
LINE
  5
1A8
330
1F
100
AcDbEntity
  8
0
100
AcDbLine
 10
-458.7364706521454
 20
-120.5275199548523
 30
0.0
 11
-458.7514706515204
 21
-90.52752370485217
 31
0.0
  0
LINE
  5
1A9
330
1F
100
AcDbEntity
  8
0
100
AcDbLine
 10
-415.7731010209528
 20
-159.2560431119973
 30
0.0
 11
-419.7731005209528
 21
-159.2580431119139
 31
0.0
  0
LINE
  5
1AA
330
1F
100
AcDbEntity
  8
0
100
AcDbLine
 10
-410.2364767146452
 20
-120.5032699558629
 30
0.0
 11
-415.7924760201453
 21
-120.5060479557471
 31
0.0
  0
LINE
  5
1AB
330
1F
100
AcDbEntity
  8
0
100
AcDbLine
 10
-415.7874760203536
 20
-130.5060467057472
 30
0.0
 11
-410.2314767148536
 21
-130.503268705863
 31
0.0
  0
LINE
  5
1AC
330
1F
100
AcDbEntity
  8
0
100
AcDbLine
 10
-421.7724752709789
 20
-160.5090429556221
 30
0.0
 11
-421.7714752710205
 21
-162.5090427056222
 31
0.0
  0
LINE
  5
1AD
330
1F
100
AcDbEntity
  8
0
100
AcDbLine
 10
-458.716470652979
 20
-160.5275149548523
 30
0.0
 11
-421.7724752709789
 21
-160.5090429556221
 31
0.0
  0
LINE
  5
1AE
330
1F
100
AcDbEntity
  8
0
100
AcDbLine
 10
-442.2822507104045
 20
-84.96328839969547
 30
0.0
 11
-442.2794727105203
 21
-90.51928770519541
 31
0.0
  0
LINE
  5
1AF
330
1F
100
AcDbEntity
  8
0
100
AcDbLine
 10
-432.2822519604045
 20
-84.95828839990385
 30
0.0
 11
-442.2822507104045
 21
-84.96328839969547
 31
0.0
  0
LINE
  5
1B0
330
1F
100
AcDbEntity
  8
0
100
AcDbLine
 10
-432.2794739605202
 20
-90.51428770540379
 30
0.0
 11
-432.2822519604045
 21
-84.95828839990385
 31
0.0
  0
LINE
  5
1B1
330
1F
100
AcDbEntity
  8
0
100
AcDbLine
 10
-464.2874699578539
 20
-130.5302967047366
 30
0.0
 11
-464.2924699576455
 21
-120.5302979547365
 31
0.0
  0
LINE
  5
1B2
330
1F
100
AcDbEntity
  8
0
100
AcDbLine
 10
-415.8074760195202
 20
-90.50605170574701
 30
0.0
 11
-415.7924760201453
 21
-120.5060479557471
 31
0.0
  0
LINE
  5
1B3
330
1F
100
AcDbEntity
  8
0
100
AcDbLine
 10
-458.7514706515204
 20
-90.52752370485217
 30
0.0
 11
-442.2794727105203
 21
-90.51928770519541
 31
0.0
  0
LINE
  5
1B4
330
1F
100
AcDbEntity
  8
0
100
AcDbLine
 10
-419.7714755210205
 20
-162.5080427056639
 30
0.0
 11
-421.7714752710205
 21
-162.5090427056222
 31
0.0
  0
LINE
  5
1B5
330
1F
100
AcDbEntity
  8
0
100
AcDbLine
 10
-415.7874760203536
 20
-130.5060467057472
 30
0.0
 11
-415.7731010209528
 21
-159.2560431119973
 31
0.0
  0
LINE
  5
1B6
330
1F
100
AcDbEntity
  8
0
100
AcDbLine
 10
-410.2314767148536
 20
-130.503268705863
 30
0.0
 11
-410.2364767146452
 21
-120.5032699558629
 31
0.0
  0
LINE
  5
1B7
330
1F
100
AcDbEntity
  8
0
100
AcDbLine
 10
-432.2794739605202
 20
-90.51428770540379
 30
0.0
 11
-415.8074760195202
 21
-90.50605170574701
 31
0.0
  0
LINE
  5
1B8
330
1F
100
AcDbEntity
  8
0
100
AcDbLine
 10
-419.7731005209528
 20
-159.2580431119139
 30
0.0
 11
-419.7714755210205
 21
-162.5080427056639
 31
0.0
  0
LINE
  5
1B9
330
1F
100
AcDbEntity
  8
0
100
AcDbLine
 10
-458.8659986467486
 20
138.5284476631483
 30
0.0
 11
-458.8809986461235
 21
168.5284439131482
 31
0.0
  0
LINE
  5
1BA
330
1F
100
AcDbEntity
  8
0
100
AcDbLine
 10
-458.8809986461235
 20
168.5284439131482
 30
0.0
 11
-464.4369979516235
 21
168.525665913264
 31
0.0
  0
LINE
  5
1BB
330
1F
100
AcDbEntity
  8
0
100
AcDbLine
 10
-464.4419979514151
 20
178.5256646632641
 30
0.0
 11
-458.8859986459151
 21
178.5284426631484
 31
0.0
  0
LINE
  5
1BC
330
1F
100
AcDbEntity
  8
0
100
AcDbLine
 10
-458.8859986459151
 20
178.5284426631484
 30
0.0
 11
-458.90099864529
 21
208.5284389131484
 31
0.0
  0
LINE
  5
1BD
330
1F
100
AcDbEntity
  8
0
100
AcDbLine
 10
-415.9226290147224
 20
139.7999195060034
 30
0.0
 11
-419.9226285147224
 21
139.7979195060867
 31
0.0
  0
LINE
  5
1BE
330
1F
100
AcDbEntity
  8
0
100
AcDbLine
 10
-410.3860047084149
 20
178.5526926621377
 30
0.0
 11
-415.9420040139149
 21
178.5499146622535
 31
0.0
  0
LINE
  5
1BF
330
1F
100
AcDbEntity
  8
0
100
AcDbLine
 10
-415.9370040141232
 20
168.5499159122534
 30
0.0
 11
-410.3810047086232
 21
168.5526939121376
 31
0.0
  0
LINE
  5
1C0
330
1F
100
AcDbEntity
  8
0
100
AcDbLine
 10
-421.9220032647485
 20
138.5469196623785
 30
0.0
 11
-421.9210032647901
 21
136.5469199123784
 31
0.0
  0
LINE
  5
1C1
330
1F
100
AcDbEntity
  8
0
100
AcDbLine
 10
-458.8659986467486
 20
138.5284476631483
 30
0.0
 11
-421.9220032647485
 21
138.5469196623785
 31
0.0
  0
LINE
  5
1C2
330
1F
100
AcDbEntity
  8
0
100
AcDbLine
 10
-442.4317787041741
 20
214.0926742183052
 30
0.0
 11
-442.4290007042899
 21
208.5366749128052
 31
0.0
  0
LINE
  5
1C3
330
1F
100
AcDbEntity
  8
0
100
AcDbLine
 10
-432.4317799541741
 20
214.0976742180968
 30
0.0
 11
-442.4317787041741
 21
214.0926742183052
 31
0.0
  0
LINE
  5
1C4
330
1F
100
AcDbEntity
  8
0
100
AcDbLine
 10
-432.4290019542898
 20
208.5416749125968
 30
0.0
 11
-432.4317799541741
 21
214.0976742180968
 31
0.0
  0
LINE
  5
1C5
330
1F
100
AcDbEntity
  8
0
100
AcDbLine
 10
-464.4369979516235
 20
168.525665913264
 30
0.0
 11
-464.4419979514151
 21
178.5256646632641
 31
0.0
  0
LINE
  5
1C6
330
1F
100
AcDbEntity
  8
0
100
AcDbLine
 10
-415.9570040132898
 20
208.5499109122536
 30
0.0
 11
-415.9420040139149
 21
178.5499146622535
 31
0.0
  0
LINE
  5
1C7
330
1F
100
AcDbEntity
  8
0
100
AcDbLine
 10
-458.90099864529
 20
208.5284389131484
 30
0.0
 11
-442.4290007042899
 21
208.5366749128052
 31
0.0
  0
LINE
  5
1C8
330
1F
100
AcDbEntity
  8
0
100
AcDbLine
 10
-419.9210035147901
 20
136.5479199123367
 30
0.0
 11
-421.9210032647901
 21
136.5469199123784
 31
0.0
  0
LINE
  5
1C9
330
1F
100
AcDbEntity
  8
0
100
AcDbLine
 10
-415.9370040141232
 20
168.5499159122534
 30
0.0
 11
-415.9226290147224
 21
139.7999195060034
 31
0.0
  0
LINE
  5
1CA
330
1F
100
AcDbEntity
  8
0
100
AcDbLine
 10
-410.3810047086232
 20
168.5526939121376
 30
0.0
 11
-410.3860047084149
 21
178.5526926621377
 31
0.0
  0
LINE
  5
1CB
330
1F
100
AcDbEntity
  8
0
100
AcDbLine
 10
-432.4290019542898
 20
208.5416749125968
 30
0.0
 11
-415.9570040132898
 21
208.5499109122536
 31
0.0
  0
LINE
  5
1CC
330
1F
100
AcDbEntity
  8
0
100
AcDbLine
 10
-419.9226285147224
 20
139.7979195060867
 30
0.0
 11
-419.9210035147901
 21
136.5479199123367
 31
0.0
  0
LINE
  5
1CD
330
1F
100
AcDbEntity
  8
0
100
AcDbLine
 10
404.8394214025236
 20
-160.0957369728437
 30
0.0
 11
388.3674234615235
 21
-160.1039729725005
 31
0.0
  0
LINE
  5
1CE
330
1F
100
AcDbEntity
  8
0
100
AcDbLine
 10
404.7606714058051
 20
-2.595756660343341
 30
0.0
 11
404.77567140518
 21
-32.59575291034342
 31
0.0
  0
LINE
  5
1CF
330
1F
100
AcDbEntity
  8
0
100
AcDbLine
 10
361.8954267705234
 20
-160.117208971949
 30
0.0
 11
361.8804267711485
 21
-130.117212721949
 31
0.0
  0
LINE
  5
1D0
330
1F
100
AcDbEntity
  8
0
100
AcDbLine
 10
361.816676773805
 20
-2.617228659448602
 30
0.0
 11
378.2886747148049
 21
-2.608992659791784
 31
0.0
  0
LINE
  5
1D1
330
1F
100
AcDbEntity
  8
0
100
AcDbLine
 10
378.2886747148049
 20
-2.608992659791784
 30
0.0
 11
378.2858967149207
 21
2.94700664570819
 31
0.0
  0
LINE
  5
1D2
330
1F
100
AcDbEntity
  8
0
100
AcDbLine
 10
378.2858967149207
 20
2.94700664570819
 30
0.0
 11
388.2858954649207
 21
2.952006645499837
 31
0.0
  0
LINE
  5
1D3
330
1F
100
AcDbEntity
  8
0
100
AcDbLine
 10
388.288673464805
 20
-2.603992660000137
 30
0.0
 11
404.7606714058051
 21
-2.595756660343341
 31
0.0
  0
LINE
  5
1D4
330
1F
100
AcDbEntity
  8
0
100
AcDbLine
 10
388.2858954649207
 20
2.952006645499837
 30
0.0
 11
388.288673464805
 21
-2.603992660000137
 31
0.0
  0
LINE
  5
1D5
330
1F
100
AcDbEntity
  8
0
100
AcDbLine
 10
378.3674247115234
 20
-160.1089729722922
 30
0.0
 11
361.8954267705234
 21
-160.117208971949
 31
0.0
  0
LINE
  5
1D6
330
1F
100
AcDbEntity
  8
0
100
AcDbLine
 10
378.3674247115234
 20
-160.1089729722922
 30
0.0
 11
378.3702027114077
 21
-165.6649722777922
 31
0.0
  0
LINE
  5
1D7
330
1F
100
AcDbEntity
  8
0
100
AcDbLine
 10
378.3702027114077
 20
-165.6649722777922
 30
0.0
 11
388.3702014614077
 21
-165.6599722780006
 31
0.0
  0
LINE
  5
1D8
330
1F
100
AcDbEntity
  8
0
100
AcDbLine
 10
388.3702014614077
 20
-165.6599722780006
 30
0.0
 11
388.3674234615235
 21
-160.1039729725005
 31
0.0
  0
LINE
  5
1D9
330
1F
100
AcDbEntity
  8
0
100
AcDbLine
 10
361.8804267711485
 20
-130.117212721949
 30
0.0
 11
356.3244274656484
 21
-130.1199907218332
 31
0.0
  0
LINE
  5
1DA
330
1F
100
AcDbEntity
  8
0
100
AcDbLine
 10
356.3244274656484
 20
-130.1199907218332
 30
0.0
 11
356.3194274658568
 21
-120.1199919718332
 31
0.0
  0
LINE
  5
1DB
330
1F
100
AcDbEntity
  8
0
100
AcDbLine
 10
361.8754267713568
 20
-120.1172139719489
 30
0.0
 11
361.8366767729716
 21
-42.61722365944873
 31
0.0
  0
LINE
  5
1DC
330
1F
100
AcDbEntity
  8
0
100
AcDbLine
 10
356.3194274658568
 20
-120.1199919718332
 30
0.0
 11
361.8754267713568
 21
-120.1172139719489
 31
0.0
  0
LINE
  5
1DD
330
1F
100
AcDbEntity
  8
0
100
AcDbLine
 10
361.8366767729716
 20
-42.61722365944873
 30
0.0
 11
356.2806774674715
 21
-42.62000165933296
 31
0.0
  0
LINE
  5
1DE
330
1F
100
AcDbEntity
  8
0
100
AcDbLine
 10
356.2806774674715
 20
-42.62000165933296
 30
0.0
 11
356.2756774676799
 21
-32.62000290933295
 31
0.0
  0
LINE
  5
1DF
330
1F
100
AcDbEntity
  8
0
100
AcDbLine
 10
361.8316767731799
 20
-32.61722490944873
 30
0.0
 11
361.816676773805
 21
-2.617228659448602
 31
0.0
  0
LINE
  5
1E0
330
1F
100
AcDbEntity
  8
0
100
AcDbLine
 10
356.2756774676799
 20
-32.62000290933295
 30
0.0
 11
361.8316767731799
 21
-32.61722490944873
 31
0.0
  0
LINE
  5
1E1
330
1F
100
AcDbEntity
  8
0
100
AcDbLine
 10
404.77567140518
 20
-32.59575291034342
 30
0.0
 11
410.33167071068
 21
-32.5929749104592
 31
0.0
  0
LINE
  5
1E2
330
1F
100
AcDbEntity
  8
0
100
AcDbLine
 10
410.33167071068
 20
-32.5929749104592
 30
0.0
 11
410.3366707104717
 21
-42.59297366045924
 31
0.0
  0
LINE
  5
1E3
330
1F
100
AcDbEntity
  8
0
100
AcDbLine
 10
404.7806714049717
 20
-42.59575166034347
 30
0.0
 11
404.819421403357
 21
-120.0957419728436
 31
0.0
  0
LINE
  5
1E4
330
1F
100
AcDbEntity
  8
0
100
AcDbLine
 10
410.3366707104717
 20
-42.59297366045924
 30
0.0
 11
404.7806714049717
 21
-42.59575166034347
 31
0.0
  0
LINE
  5
1E5
330
1F
100
AcDbEntity
  8
0
100
AcDbLine
 10
404.819421403357
 20
-120.0957419728436
 30
0.0
 11
410.375420708857
 21
-120.0929639729594
 31
0.0
  0
LINE
  5
1E6
330
1F
100
AcDbEntity
  8
0
100
AcDbLine
 10
410.375420708857
 20
-120.0929639729594
 30
0.0
 11
410.3804207086486
 21
-130.0929627229595
 31
0.0
  0
LINE
  5
1E7
330
1F
100
AcDbEntity
  8
0
100
AcDbLine
 10
404.8244214031486
 20
-130.0957407228437
 30
0.0
 11
404.8394214025236
 21
-160.0957369728437
 31
0.0
  0
LINE
  5
1E8
330
1F
100
AcDbEntity
  8
0
100
AcDbLine
 10
410.3804207086486
 20
-130.0929627229595
 30
0.0
 11
404.8244214031486
 21
-130.0957407228437
 31
0.0
  0
LINE
  5
1E9
330
1F
100
AcDbEntity
  8
0
100
AcDbLine
 10
-404.6804774091453
 20
-120.5004919559787
 30
0.0
 11
-404.6954774085202
 21
-90.5004957059786
 31
0.0
  0
LINE
  5
1EA
330
1F
100
AcDbEntity
  8
0
100
AcDbLine
 10
-404.6604774099788
 20
-160.5004869559787
 30
0.0
 11
-404.6754774093537
 21
-130.5004907059788
 31
0.0
  0
LINE
  5
1EB
330
1F
100
AcDbEntity
  8
0
100
AcDbLine
 10
-404.6754774093537
 20
-130.5004907059788
 30
0.0
 11
-410.2314767148536
 21
-130.503268705863
 31
0.0
  0
LINE
  5
1EC
330
1F
100
AcDbEntity
  8
0
100
AcDbLine
 10
-365.7524822764784
 20
-88.48102395679018
 30
0.0
 11
-365.7508572765461
 21
-91.73102355054017
 31
0.0
  0
LINE
  5
1ED
330
1F
100
AcDbEntity
  8
0
100
AcDbLine
 10
-361.7164827779786
 20
-160.4790149568738
 30
0.0
 11
-378.1884807189785
 21
-160.4872509565303
 31
0.0
  0
LINE
  5
1EE
330
1F
100
AcDbEntity
  8
0
100
AcDbLine
 10
-367.7514820265201
 20
-90.48202370674842
 30
0.0
 11
-404.6954774085202
 21
-90.5004957059786
 31
0.0
  0
LINE
  5
1EF
330
1F
100
AcDbEntity
  8
0
100
AcDbLine
 10
-365.7508572765461
 20
-91.73102355054017
 30
0.0
 11
-361.7508577765461
 21
-91.72902355062352
 31
0.0
  0
LINE
  5
1F0
330
1F
100
AcDbEntity
  8
0
100
AcDbLine
 10
-367.7524820264784
 20
-88.4820239567485
 30
0.0
 11
-367.7514820265201
 21
-90.48202370674842
 31
0.0
  0
LINE
  5
1F1
330
1F
100
AcDbEntity
  8
0
100
AcDbLine
 10
-361.7508577765461
 20
-91.72902355062352
 30
0.0
 11
-361.7364827771452
 21
-120.4790199568736
 31
0.0
  0
LINE
  5
1F2
330
1F
100
AcDbEntity
  8
0
100
AcDbLine
 10
-367.7524820264784
 20
-88.4820239567485
 30
0.0
 11
-365.7524822764784
 21
-88.48102395679018
 31
0.0
  0
LINE
  5
1F3
330
1F
100
AcDbEntity
  8
0
100
AcDbLine
 10
-410.2364767146452
 20
-120.5032699558629
 30
0.0
 11
-404.6804774091453
 21
-120.5004919559787
 31
0.0
  0
LINE
  5
1F4
330
1F
100
AcDbEntity
  8
0
100
AcDbLine
 10
-388.1884794689786
 20
-160.492250956322
 30
0.0
 11
-404.6604774099788
 21
-160.5004869559787
 31
0.0
  0
LINE
  5
1F5
330
1F
100
AcDbEntity
  8
0
100
AcDbLine
 10
-388.1884794689786
 20
-160.492250956322
 30
0.0
 11
-388.1857014690943
 21
-166.0482502618221
 31
0.0
  0
LINE
  5
1F6
330
1F
100
AcDbEntity
  8
0
100
AcDbLine
 10
-388.1857014690943
 20
-166.0482502618221
 30
0.0
 11
-378.1857027190943
 21
-166.0432502620305
 31
0.0
  0
LINE
  5
1F7
330
1F
100
AcDbEntity
  8
0
100
AcDbLine
 10
-378.1857027190943
 20
-166.0432502620305
 30
0.0
 11
-378.1884807189785
 21
-160.4872509565303
 31
0.0
  0
LINE
  5
1F8
330
1F
100
AcDbEntity
  8
0
100
AcDbLine
 10
-361.7314827773535
 20
-130.4790187068737
 30
0.0
 11
-361.7164827779786
 21
-160.4790149568738
 31
0.0
  0
LINE
  5
1F9
330
1F
100
AcDbEntity
  8
0
100
AcDbLine
 10
-361.7314827773535
 20
-130.4790187068737
 30
0.0
 11
-356.1754834718535
 21
-130.4762407069894
 31
0.0
  0
LINE
  5
1FA
330
1F
100
AcDbEntity
  8
0
100
AcDbLine
 10
-356.1754834718535
 20
-130.4762407069894
 30
0.0
 11
-356.1804834716451
 21
-120.4762419569893
 31
0.0
  0
LINE
  5
1FB
330
1F
100
AcDbEntity
  8
0
100
AcDbLine
 10
-356.1804834716451
 20
-120.4762419569893
 30
0.0
 11
-361.7364827771452
 21
-120.4790199568736
 31
0.0
  0
LINE
  5
1FC
330
1F
100
AcDbEntity
  8
0
100
AcDbLine
 10
415.9570040132899
 20
-171.2581795770751
 30
0.0
 11
415.942004013915
 21
-141.2581833270752
 31
0.0
  0
LINE
  5
1FD
330
1F
100
AcDbEntity
  8
0
100
AcDbLine
 10
415.942004013915
 20
-141.2581833270752
 30
0.0
 11
410.386004708415
 21
-141.2609613269594
 31
0.0
  0
LINE
  5
1FE
330
1F
100
AcDbEntity
  8
0
100
AcDbLine
 10
410.3810047086234
 20
-131.2609625769593
 30
0.0
 11
415.9370040141234
 21
-131.2581845770751
 31
0.0
  0
LINE
  5
1FF
330
1F
100
AcDbEntity
  8
0
100
AcDbLine
 10
415.9370040141234
 20
-131.2581845770751
 30
0.0
 11
415.9220040147485
 21
-101.258188327075
 31
0.0
  0
LINE
  5
200
330
1F
100
AcDbEntity
  8
0
100
AcDbLine
 10
458.9003736453161
 20
-169.9867077342201
 30
0.0
 11
454.9003741453161
 21
-169.9887077341367
 31
0.0
  0
LINE
  5
201
330
1F
100
AcDbEntity
  8
0
100
AcDbLine
 10
464.4369979516236
 20
-131.2339345780857
 30
0.0
 11
458.8809986461236
 21
-131.2367125779699
 31
0.0
  0
LINE
  5
202
330
1F
100
AcDbEntity
  8
0
100
AcDbLine
 10
464.4419979514153
 20
-141.2339333280858
 30
0.0
 11
464.4369979516236
 21
-131.2339345780857
 31
0.0
  0
LINE
  5
203
330
1F
100
AcDbEntity
  8
0
100
AcDbLine
 10
458.8859986459153
 20
-141.2367113279701
 30
0.0
 11
464.4419979514153
 21
-141.2339333280858
 31
0.0
  0
LINE
  5
204
330
1F
100
AcDbEntity
  8
0
100
AcDbLine
 10
452.90099939529
 20
-171.239707577845
 30
0.0
 11
452.9019993952484
 21
-173.2397073278451
 31
0.0
  0
LINE
  5
205
330
1F
100
AcDbEntity
  8
0
100
AcDbLine
 10
415.9570040132899
 20
-171.2581795770751
 30
0.0
 11
452.90099939529
 21
-171.239707577845
 31
0.0
  0
LINE
  5
206
330
1F
100
AcDbEntity
  8
0
100
AcDbLine
 10
432.3912239558643
 20
-95.69395302191828
 30
0.0
 11
432.3940019557485
 21
-101.2499523274182
 31
0.0
  0
LINE
  5
207
330
1F
100
AcDbEntity
  8
0
100
AcDbLine
 10
442.3940007057486
 20
-101.2449523276266
 30
0.0
 11
442.3912227058643
 21
-95.68895302212665
 31
0.0
  0
LINE
  5
208
330
1F
100
AcDbEntity
  8
0
100
AcDbLine
 10
410.386004708415
 20
-141.2609613269594
 30
0.0
 11
410.3810047086234
 21
-131.2609625769593
 31
0.0
  0
LINE
  5
209
330
1F
100
AcDbEntity
  8
0
100
AcDbLine
 10
458.8659986467487
 20
-101.2367163279698
 30
0.0
 11
458.8809986461236
 21
-131.2367125779699
 31
0.0
  0
LINE
  5
20A
330
1F
100
AcDbEntity
  8
0
100
AcDbLine
 10
415.9220040147485
 20
-101.258188327075
 30
0.0
 11
432.3940019557485
 21
-101.2499523274182
 31
0.0
  0
LINE
  5
20B
330
1F
100
AcDbEntity
  8
0
100
AcDbLine
 10
454.9019991452483
 20
-173.2387073278867
 30
0.0
 11
452.9019993952484
 21
-173.2397073278451
 31
0.0
  0
LINE
  5
20C
330
1F
100
AcDbEntity
  8
0
100
AcDbLine
 10
458.8859986459153
 20
-141.2367113279701
 30
0.0
 11
458.9003736453161
 21
-169.9867077342201
 31
0.0
  0
LINE
  5
20D
330
1F
100
AcDbEntity
  8
0
100
AcDbLine
 10
442.3940007057486
 20
-101.2449523276266
 30
0.0
 11
458.8659986467487
 21
-101.2367163279698
 31
0.0
  0
LINE
  5
20E
330
1F
100
AcDbEntity
  8
0
100
AcDbLine
 10
454.9003741453161
 20
-169.9887077341367
 30
0.0
 11
454.9019991452483
 21
-173.2387073278867
 31
0.0
  0
LINE
  5
20F
330
1F
100
AcDbEntity
  8
0
100
AcDbLine
 10
-458.8222486485714
 20
51.02845860064809
 30
0.0
 11
-458.8372486479464
 21
81.02845485064803
 31
0.0
  0
LINE
  5
210
330
1F
100
AcDbEntity
  8
0
100
AcDbLine
 10
-458.8372486479464
 20
81.02845485064803
 30
0.0
 11
-464.3932479534463
 21
81.02567685076379
 31
0.0
  0
LINE
  5
211
330
1F
100
AcDbEntity
  8
0
100
AcDbLine
 10
-464.398247953238
 20
91.02567560076389
 30
0.0
 11
-458.842248647738
 21
91.02845360064812
 31
0.0
  0
LINE
  5
212
330
1F
100
AcDbEntity
  8
0
100
AcDbLine
 10
-458.842248647738
 20
91.02845360064812
 30
0.0
 11
-458.8572486471128
 21
121.0284498506482
 31
0.0
  0
LINE
  5
213
330
1F
100
AcDbEntity
  8
0
100
AcDbLine
 10
-415.8788790165453
 20
52.29993044350315
 30
0.0
 11
-419.8788785165452
 21
52.29793044358649
 31
0.0
  0
LINE
  5
214
330
1F
100
AcDbEntity
  8
0
100
AcDbLine
 10
-410.3422547102377
 20
91.05270359963751
 30
0.0
 11
-415.8982540157377
 21
91.04992559975328
 31
0.0
  0
LINE
  5
215
330
1F
100
AcDbEntity
  8
0
100
AcDbLine
 10
-415.893254015946
 20
81.04992684975318
 30
0.0
 11
-410.337254710446
 21
81.05270484963741
 31
0.0
  0
LINE
  5
216
330
1F
100
AcDbEntity
  8
0
100
AcDbLine
 10
-421.8782532665713
 20
51.04693059987827
 30
0.0
 11
-421.877253266613
 21
49.04693084987818
 31
0.0
  0
LINE
  5
217
330
1F
100
AcDbEntity
  8
0
100
AcDbLine
 10
-458.8222486485714
 20
51.02845860064809
 30
0.0
 11
-421.8782532665713
 21
51.04693059987827
 31
0.0
  0
LINE
  5
218
330
1F
100
AcDbEntity
  8
0
100
AcDbLine
 10
-442.388028705997
 20
126.5926851558049
 30
0.0
 11
-442.3852507061127
 21
121.036685850305
 31
0.0
  0
LINE
  5
219
330
1F
100
AcDbEntity
  8
0
100
AcDbLine
 10
-432.388029955997
 20
126.5976851555966
 30
0.0
 11
-442.388028705997
 21
126.5926851558049
 31
0.0
  0
LINE
  5
21A
330
1F
100
AcDbEntity
  8
0
100
AcDbLine
 10
-432.3852519561127
 20
121.0416858500966
 30
0.0
 11
-432.388029955997
 21
126.5976851555966
 31
0.0
  0
LINE
  5
21B
330
1F
100
AcDbEntity
  8
0
100
AcDbLine
 10
-464.3932479534463
 20
81.02567685076379
 30
0.0
 11
-464.398247953238
 21
91.02567560076389
 31
0.0
  0
LINE
  5
21C
330
1F
100
AcDbEntity
  8
0
100
AcDbLine
 10
-415.9132540151126
 20
121.0499218497534
 30
0.0
 11
-415.8982540157377
 21
91.04992559975328
 31
0.0
  0
LINE
  5
21D
330
1F
100
AcDbEntity
  8
0
100
AcDbLine
 10
-458.8572486471128
 20
121.0284498506482
 30
0.0
 11
-442.3852507061127
 21
121.036685850305
 31
0.0
  0
LINE
  5
21E
330
1F
100
AcDbEntity
  8
0
100
AcDbLine
 10
-419.8772535166129
 20
49.0479308498365
 30
0.0
 11
-421.877253266613
 21
49.04693084987818
 31
0.0
  0
LINE
  5
21F
330
1F
100
AcDbEntity
  8
0
100
AcDbLine
 10
-415.893254015946
 20
81.04992684975318
 30
0.0
 11
-415.8788790165453
 21
52.29993044350315
 31
0.0
  0
LINE
  5
220
330
1F
100
AcDbEntity
  8
0
100
AcDbLine
 10
-410.337254710446
 20
81.05270484963741
 30
0.0
 11
-410.3422547102377
 21
91.05270359963751
 31
0.0
  0
LINE
  5
221
330
1F
100
AcDbEntity
  8
0
100
AcDbLine
 10
-432.3852519561127
 20
121.0416858500966
 30
0.0
 11
-415.9132540151126
 21
121.0499218497534
 31
0.0
  0
LINE
  5
222
330
1F
100
AcDbEntity
  8
0
100
AcDbLine
 10
-419.8788785165452
 20
52.29793044358649
 30
0.0
 11
-419.8772535166129
 21
49.0479308498365
 31
0.0
  0
LINE
  5
223
330
1F
100
AcDbEntity
  8
0
100
AcDbLine
 10
415.8188920190452
 20
104.9657858949255
 30
0.0
 11
415.8038920196703
 21
134.9657821449256
 31
0.0
  0
LINE
  5
224
330
1F
100
AcDbEntity
  8
0
100
AcDbLine
 10
415.8388920182117
 20
64.96579089492542
 30
0.0
 11
415.8238920188368
 21
94.96578714492536
 31
0.0
  0
LINE
  5
225
330
1F
100
AcDbEntity
  8
0
100
AcDbLine
 10
415.8238920188368
 20
94.96578714492536
 30
0.0
 11
410.2678927133367
 21
94.96300914504113
 31
0.0
  0
LINE
  5
226
330
1F
100
AcDbEntity
  8
0
100
AcDbLine
 10
454.7468871517121
 20
136.985253894114
 30
0.0
 11
454.7485121516443
 21
133.735254300364
 31
0.0
  0
LINE
  5
227
330
1F
100
AcDbEntity
  8
0
100
AcDbLine
 10
410.2678927133367
 20
94.96300914504113
 30
0.0
 11
410.2628927135451
 21
104.9630078950412
 31
0.0
  0
LINE
  5
228
330
1F
100
AcDbEntity
  8
0
100
AcDbLine
 10
458.7828866502119
 20
64.98726289403058
 30
0.0
 11
442.310888709212
 21
64.97902689437382
 31
0.0
  0
LINE
  5
229
330
1F
100
AcDbEntity
  8
0
100
AcDbLine
 10
452.7478874016704
 20
134.9842541441558
 30
0.0
 11
415.8038920196703
 21
134.9657821449256
 31
0.0
  0
LINE
  5
22A
330
1F
100
AcDbEntity
  8
0
100
AcDbLine
 10
454.7485121516443
 20
133.735254300364
 30
0.0
 11
458.7485116516443
 21
133.7372543002807
 31
0.0
  0
LINE
  5
22B
330
1F
100
AcDbEntity
  8
0
100
AcDbLine
 10
452.7468874017121
 20
136.9842538941556
 30
0.0
 11
452.7478874016704
 21
134.9842541441558
 31
0.0
  0
LINE
  5
22C
330
1F
100
AcDbEntity
  8
0
100
AcDbLine
 10
458.7485116516443
 20
133.7372543002807
 30
0.0
 11
458.7628866510453
 21
104.9872578940306
 31
0.0
  0
LINE
  5
22D
330
1F
100
AcDbEntity
  8
0
100
AcDbLine
 10
410.2628927135451
 20
104.9630078950412
 30
0.0
 11
415.8188920190452
 21
104.9657858949255
 31
0.0
  0
LINE
  5
22E
330
1F
100
AcDbEntity
  8
0
100
AcDbLine
 10
432.3108899592119
 20
64.9740268945822
 30
0.0
 11
415.8388920182117
 21
64.96579089492542
 31
0.0
  0
LINE
  5
22F
330
1F
100
AcDbEntity
  8
0
100
AcDbLine
 10
432.3108899592119
 20
64.9740268945822
 30
0.0
 11
432.3136679590963
 21
59.41802758908208
 31
0.0
  0
LINE
  5
230
330
1F
100
AcDbEntity
  8
0
100
AcDbLine
 10
442.3136667090963
 20
59.42302758887371
 30
0.0
 11
442.310888709212
 21
64.97902689437382
 31
0.0
  0
LINE
  5
231
330
1F
100
AcDbEntity
  8
0
100
AcDbLine
 10
458.7678866508369
 20
94.98725914403052
 30
0.0
 11
458.7828866502119
 21
64.98726289403058
 31
0.0
  0
LINE
  5
232
330
1F
100
AcDbEntity
  8
0
100
AcDbLine
 10
458.7678866508369
 20
94.98725914403052
 30
0.0
 11
464.323885956337
 21
94.99003714391473
 31
0.0
  0
LINE
  5
233
330
1F
100
AcDbEntity
  8
0
100
AcDbLine
 10
464.323885956337
 20
94.99003714391473
 30
0.0
 11
464.3188859565454
 21
104.9900358939148
 31
0.0
  0
LINE
  5
234
330
1F
100
AcDbEntity
  8
0
100
AcDbLine
 10
464.3188859565454
 20
104.9900358939148
 30
0.0
 11
458.7628866510453
 21
104.9872578940306
 31
0.0
  0
LINE
  5
235
330
1F
100
AcDbEntity
  8
0
100
AcDbLine
 10
-458.7602206511561
 20
-73.02752589235234
 30
0.0
 11
-458.775220650531
 21
-43.02752964235241
 31
0.0
  0
LINE
  5
236
330
1F
100
AcDbEntity
  8
0
100
AcDbLine
 10
-458.775220650531
 20
-43.02752964235241
 30
0.0
 11
-464.3312199560311
 21
-43.03030764223664
 31
0.0
  0
LINE
  5
237
330
1F
100
AcDbEntity
  8
0
100
AcDbLine
 10
-464.3362199558226
 20
-33.03030889223654
 30
0.0
 11
-458.7802206503226
 21
-33.02753089235231
 31
0.0
  0
LINE
  5
238
330
1F
100
AcDbEntity
  8
0
100
AcDbLine
 10
-458.7802206503226
 20
-33.02753089235231
 30
0.0
 11
-458.7952206496975
 21
-3.027534642352194
 31
0.0
  0
LINE
  5
239
330
1F
100
AcDbEntity
  8
0
100
AcDbLine
 10
-415.81685101913
 20
-71.75605404949728
 30
0.0
 11
-419.81685051913
 21
-71.75805404941393
 31
0.0
  0
LINE
  5
23A
330
1F
100
AcDbEntity
  8
0
100
AcDbLine
 10
-410.2802267128226
 20
-33.00328089336291
 30
0.0
 11
-415.8362260183224
 21
-33.00605889324715
 31
0.0
  0
LINE
  5
23B
330
1F
100
AcDbEntity
  8
0
100
AcDbLine
 10
-415.8312260185307
 20
-43.00605764324725
 30
0.0
 11
-410.2752267130309
 21
-43.00327964336301
 31
0.0
  0
LINE
  5
23C
330
1F
100
AcDbEntity
  8
0
100
AcDbLine
 10
-421.816225269156
 20
-73.00905389312216
 30
0.0
 11
-421.8152252691976
 21
-75.00905364312226
 31
0.0
  0
LINE
  5
23D
330
1F
100
AcDbEntity
  8
0
100
AcDbLine
 10
-458.7602206511561
 20
-73.02752589235234
 30
0.0
 11
-421.816225269156
 21
-73.00905389312216
 31
0.0
  0
LINE
  5
23E
330
1F
100
AcDbEntity
  8
0
100
AcDbLine
 10
-442.3260007085817
 20
2.536700662804508
 30
0.0
 11
-442.3232227086975
 21
-3.019298642695432
 31
0.0
  0
LINE
  5
23F
330
1F
100
AcDbEntity
  8
0
100
AcDbLine
 10
-432.3260019585817
 20
2.541700662596132
 30
0.0
 11
-442.3260007085817
 21
2.536700662804508
 31
0.0
  0
LINE
  5
240
330
1F
100
AcDbEntity
  8
0
100
AcDbLine
 10
-432.3232239586974
 20
-3.014298642903808
 30
0.0
 11
-432.3260019585817
 21
2.541700662596132
 31
0.0
  0
LINE
  5
241
330
1F
100
AcDbEntity
  8
0
100
AcDbLine
 10
-464.3312199560311
 20
-43.03030764223664
 30
0.0
 11
-464.3362199558226
 21
-33.03030889223654
 31
0.0
  0
LINE
  5
242
330
1F
100
AcDbEntity
  8
0
100
AcDbLine
 10
-415.8512260176973
 20
-3.006062643247034
 30
0.0
 11
-415.8362260183224
 21
-33.00605889324715
 31
0.0
  0
LINE
  5
243
330
1F
100
AcDbEntity
  8
0
100
AcDbLine
 10
-458.7952206496975
 20
-3.027534642352194
 30
0.0
 11
-442.3232227086975
 21
-3.019298642695432
 31
0.0
  0
LINE
  5
244
330
1F
100
AcDbEntity
  8
0
100
AcDbLine
 10
-419.8152255191977
 20
-75.00805364316393
 30
0.0
 11
-421.8152252691976
 21
-75.00905364312226
 31
0.0
  0
LINE
  5
245
330
1F
100
AcDbEntity
  8
0
100
AcDbLine
 10
-415.8312260185307
 20
-43.00605764324725
 30
0.0
 11
-415.81685101913
 21
-71.75605404949728
 31
0.0
  0
LINE
  5
246
330
1F
100
AcDbEntity
  8
0
100
AcDbLine
 10
-432.3232239586974
 20
-3.014298642903808
 30
0.0
 11
-415.8512260176973
 21
-3.006062643247034
 31
0.0
  0
LINE
  5
247
330
1F
100
AcDbEntity
  8
0
100
AcDbLine
 10
-419.81685051913
 20
-71.75805404941393
 30
0.0
 11
-419.8152255191977
 21
-75.00805364316393
 31
0.0
  0
LINE
  5
248
330
1F
100
AcDbEntity
  8
0
100
AcDbLine
 10
-404.8300054029149
 20
178.5554706620219
 30
0.0
 11
-404.8450054022898
 21
208.5554669120221
 31
0.0
  0
LINE
  5
249
330
1F
100
AcDbEntity
  8
0
100
AcDbLine
 10
-404.8100054037484
 20
138.5554756620219
 30
0.0
 11
-404.8250054031233
 21
168.5554719120218
 31
0.0
  0
LINE
  5
24A
330
1F
100
AcDbEntity
  8
0
100
AcDbLine
 10
-404.8250054031233
 20
168.5554719120218
 30
0.0
 11
-410.3810047086232
 21
168.5526939121376
 31
0.0
  0
LINE
  5
24B
330
1F
100
AcDbEntity
  8
0
100
AcDbLine
 10
-365.902010270248
 20
210.5749386612104
 30
0.0
 11
-365.9003852703158
 21
207.3249390674605
 31
0.0
  0
LINE
  5
24C
330
1F
100
AcDbEntity
  8
0
100
AcDbLine
 10
-361.8660107717486
 20
138.5769476611271
 30
0.0
 11
-378.3380087127481
 21
138.5687116614703
 31
0.0
  0
LINE
  5
24D
330
1F
100
AcDbEntity
  8
0
100
AcDbLine
 10
-367.9010100202897
 20
208.5739389112522
 30
0.0
 11
-404.8450054022898
 21
208.5554669120221
 31
0.0
  0
LINE
  5
24E
330
1F
100
AcDbEntity
  8
0
100
AcDbLine
 10
-365.9003852703158
 20
207.3249390674605
 30
0.0
 11
-361.9003857703161
 21
207.3269390673771
 31
0.0
  0
LINE
  5
24F
330
1F
100
AcDbEntity
  8
0
100
AcDbLine
 10
-367.902010020248
 20
210.5739386612521
 30
0.0
 11
-367.9010100202897
 21
208.5739389112522
 31
0.0
  0
LINE
  5
250
330
1F
100
AcDbEntity
  8
0
100
AcDbLine
 10
-361.9003857703161
 20
207.3269390673771
 30
0.0
 11
-361.8860107709152
 21
178.576942661127
 31
0.0
  0
LINE
  5
251
330
1F
100
AcDbEntity
  8
0
100
AcDbLine
 10
-367.902010020248
 20
210.5739386612521
 30
0.0
 11
-365.902010270248
 21
210.5749386612104
 31
0.0
  0
LINE
  5
252
330
1F
100
AcDbEntity
  8
0
100
AcDbLine
 10
-410.3860047084149
 20
178.5526926621377
 30
0.0
 11
-404.8300054029149
 21
178.5554706620219
 31
0.0
  0
LINE
  5
253
330
1F
100
AcDbEntity
  8
0
100
AcDbLine
 10
-388.3380074627482
 20
138.5637116616787
 30
0.0
 11
-404.8100054037484
 21
138.5554756620219
 31
0.0
  0
LINE
  5
254
330
1F
100
AcDbEntity
  8
0
100
AcDbLine
 10
-388.3380074627482
 20
138.5637116616787
 30
0.0
 11
-388.3352294628639
 21
133.0077123561786
 31
0.0
  0
LINE
  5
255
330
1F
100
AcDbEntity
  8
0
100
AcDbLine
 10
-388.3352294628639
 20
133.0077123561786
 30
0.0
 11
-378.3352307128639
 21
133.0127123559702
 31
0.0
  0
LINE
  5
256
330
1F
100
AcDbEntity
  8
0
100
AcDbLine
 10
-378.3352307128639
 20
133.0127123559702
 30
0.0
 11
-378.3380087127481
 21
138.5687116614703
 31
0.0
  0
LINE
  5
257
330
1F
100
AcDbEntity
  8
0
100
AcDbLine
 10
-361.8810107711236
 20
168.5769439111271
 30
0.0
 11
-361.8660107717486
 21
138.5769476611271
 31
0.0
  0
LINE
  5
258
330
1F
100
AcDbEntity
  8
0
100
AcDbLine
 10
361.816676773805
 20
-2.617228659448602
 30
0.0
 11
361.8056627742635
 21
19.41076858705135
 31
0.0
  0
LINE
  5
259
330
1F
100
AcDbEntity
  8
0
100
AcDbLine
 10
-361.7952327746974
 20
-2.979034644373515
 30
0.0
 11
-254.9892461254473
 21
-2.925631646598606
 31
0.0
  0
LINE
  5
25A
330
1F
100
AcDbEntity
  8
0
100
AcDbLine
 10
-361.8222607735713
 20
51.07695859862681
 30
0.0
 11
-361.8112467740301
 21
29.04896135212656
 31
0.0
  0
LINE
  5
25B
330
1F
100
AcDbEntity
  8
0
100
AcDbLine
 10
361.8056627742635
 20
19.41076858705135
 30
0.0
 11
356.2496634687635
 21
19.40799058716711
 31
0.0
  0
LINE
  5
25C
330
1F
100
AcDbEntity
  8
0
100
AcDbLine
 10
356.2496634687635
 20
19.40799058716711
 30
0.0
 11
356.2446634689719
 21
29.40798933716714
 31
0.0
  0
LINE
  5
25D
330
1F
100
AcDbEntity
  8
0
100
AcDbLine
 10
356.2446634689719
 20
29.40798933716714
 30
0.0
 11
361.8006627744717
 21
29.41076733705139
 31
0.0
  0
LINE
  5
25E
330
1F
100
AcDbEntity
  8
0
100
AcDbLine
 10
361.8006627744717
 20
29.41076733705139
 30
0.0
 11
361.789648774931
 21
51.43876458355154
 31
0.0
  0
LINE
  5
25F
330
1F
100
AcDbEntity
  8
0
100
AcDbLine
 10
-361.8062467742384
 20
19.04896260212654
 30
0.0
 11
-361.7952327746974
 21
-2.979034644373515
 31
0.0
  0
LINE
  5
260
330
1F
100
AcDbEntity
  8
0
100
AcDbLine
 10
-356.2552474685302
 20
29.05173935201082
 30
0.0
 11
-361.8112467740301
 21
29.04896135212656
 31
0.0
  0
LINE
  5
261
330
1F
100
AcDbEntity
  8
0
100
AcDbLine
 10
-361.8062467742384
 20
19.04896260212654
 30
0.0
 11
-356.2502474687385
 21
19.05174060201078
 31
0.0
  0
LINE
  5
262
330
1F
100
AcDbEntity
  8
0
100
AcDbLine
 10
-202.7832666525296
 20
29.12847534881377
 30
0.0
 11
-202.778266652738
 21
19.12847659881376
 31
0.0
  0
LINE
  5
263
330
1F
100
AcDbEntity
  8
0
100
AcDbLine
 10
-197.2272673470297
 20
29.13125334869801
 30
0.0
 11
-202.7832666525296
 21
29.12847534881377
 31
0.0
  0
LINE
  5
264
330
1F
100
AcDbEntity
  8
0
100
AcDbLine
 10
-197.222267347238
 20
19.13125459869801
 30
0.0
 11
-197.2272673470297
 21
29.13125334869801
 31
0.0
  0
LINE
  5
265
330
1F
100
AcDbEntity
  8
0
100
AcDbLine
 10
-202.778266652738
 20
19.12847659881376
 30
0.0
 11
-197.222267347238
 21
19.13125459869801
 31
0.0
  0
LINE
  5
266
330
1F
100
AcDbEntity
  8
0
100
AcDbLine
 10
-97.22727984702945
 20
29.18125334661466
 30
0.0
 11
-102.7832791525294
 21
29.17847534673042
 31
0.0
  0
LINE
  5
267
330
1F
100
AcDbEntity
  8
0
100
AcDbLine
 10
-97.2222798472378
 20
19.18125459661467
 30
0.0
 11
-97.22727984702945
 21
29.18125334661466
 31
0.0
  0
LINE
  5
268
330
1F
100
AcDbEntity
  8
0
100
AcDbLine
 10
-102.7782791527377
 20
19.17847659673041
 30
0.0
 11
-97.2222798472378
 21
19.18125459661467
 31
0.0
  0
LINE
  5
269
330
1F
100
AcDbEntity
  8
0
100
AcDbLine
 10
-102.7832791525294
 20
29.17847534673042
 30
0.0
 11
-102.7782791527377
 21
19.17847659673041
 31
0.0
  0
LINE
  5
26A
330
1F
100
AcDbEntity
  8
0
100
AcDbLine
 10
-2.78329165252907
 20
29.22847534464713
 30
0.0
 11
-2.778291652737424
 21
19.22847659464712
 31
0.0
  0
LINE
  5
26B
330
1F
100
AcDbEntity
  8
0
100
AcDbLine
 10
2.772707652970859
 20
29.23125334453139
 30
0.0
 11
-2.78329165252907
 21
29.22847534464713
 31
0.0
  0
LINE
  5
26C
330
1F
100
AcDbEntity
  8
0
100
AcDbLine
 10
2.777707652762505
 20
19.23125459453138
 30
0.0
 11
2.772707652970859
 21
29.23125334453139
 31
0.0
  0
LINE
  5
26D
330
1F
100
AcDbEntity
  8
0
100
AcDbLine
 10
-2.778291652737424
 20
19.22847659464712
 30
0.0
 11
2.777707652762505
 21
19.23125459453138
 31
0.0
  0
LINE
  5
26E
330
1F
100
AcDbEntity
  8
0
100
AcDbLine
 10
97.21669584747102
 20
29.27847534256379
 30
0.0
 11
97.22169584726271
 21
19.27847659256378
 31
0.0
  0
LINE
  5
26F
330
1F
100
AcDbEntity
  8
0
100
AcDbLine
 10
102.7726951529709
 20
29.28125334244804
 30
0.0
 11
97.21669584747102
 21
29.27847534256379
 31
0.0
  0
LINE
  5
270
330
1F
100
AcDbEntity
  8
0
100
AcDbLine
 10
102.7776951527626
 20
19.28125459244803
 30
0.0
 11
102.7726951529709
 21
29.28125334244804
 31
0.0
  0
LINE
  5
271
330
1F
100
AcDbEntity
  8
0
100
AcDbLine
 10
97.22169584726271
 20
19.27847659256378
 30
0.0
 11
102.7776951527626
 21
19.28125459244803
 31
0.0
  0
LINE
  5
272
330
1F
100
AcDbEntity
  8
0
100
AcDbLine
 10
197.2166833474713
 20
29.32847534048048
 30
0.0
 11
197.221683347263
 21
19.32847659048048
 31
0.0
  0
LINE
  5
273
330
1F
100
AcDbEntity
  8
0
100
AcDbLine
 10
202.7726826529712
 20
29.33125334036474
 30
0.0
 11
197.2166833474713
 21
29.32847534048048
 31
0.0
  0
LINE
  5
274
330
1F
100
AcDbEntity
  8
0
100
AcDbLine
 10
202.7776826527629
 20
19.33125459036473
 30
0.0
 11
202.7726826529712
 21
29.33125334036474
 31
0.0
  0
LINE
  5
275
330
1F
100
AcDbEntity
  8
0
100
AcDbLine
 10
197.221683347263
 20
19.32847659048048
 30
0.0
 11
202.7776826527629
 21
19.33125459036473
 31
0.0
  0
LINE
  5
276
330
1F
100
AcDbEntity
  8
0
100
AcDbLine
 10
302.7776701527633
 20
19.38125458828137
 30
0.0
 11
302.7726701529716
 21
29.38125333828136
 31
0.0
  0
LINE
  5
277
330
1F
100
AcDbEntity
  8
0
100
AcDbLine
 10
297.2216708472633
 20
19.37847658839711
 30
0.0
 11
302.7776701527633
 21
19.38125458828137
 31
0.0
  0
LINE
  5
278
330
1F
100
AcDbEntity
  8
0
100
AcDbLine
 10
297.2166708474716
 20
29.37847533839712
 30
0.0
 11
297.2216708472633
 21
19.37847658839711
 31
0.0
  0
LINE
  5
279
330
1F
100
AcDbEntity
  8
0
100
AcDbLine
 10
302.7726701529716
 20
29.38125333828136
 30
0.0
 11
297.2166708474716
 21
29.37847533839712
 31
0.0
  0
LINE
  5
27A
330
1F
100
AcDbEntity
  8
0
100
AcDbLine
 10
-254.9892461254473
 20
-2.925631646598606
 30
0.0
 11
-254.9920241253315
 21
2.630367658901334
 31
0.0
  0
LINE
  5
27B
330
1F
100
AcDbEntity
  8
0
100
AcDbLine
 10
-254.9920241253315
 20
2.630367658901334
 30
0.0
 11
-244.9920253753315
 21
2.635367658693002
 31
0.0
  0
LINE
  5
27C
330
1F
100
AcDbEntity
  8
0
100
AcDbLine
 10
-244.9920253753315
 20
2.635367658693002
 30
0.0
 11
-244.9892473754472
 21
-2.920631646806937
 31
0.0
  0
LINE
  5
27D
330
1F
100
AcDbEntity
  8
0
100
AcDbLine
 10
-244.9892473754472
 20
-2.920631646806937
 30
0.0
 11
-154.989258625447
 21
-2.875631648681941
 31
0.0
  0
LINE
  5
27E
330
1F
100
AcDbEntity
  8
0
100
AcDbLine
 10
-154.989258625447
 20
-2.875631648681941
 30
0.0
 11
-154.9920366253313
 21
2.680367656817999
 31
0.0
  0
LINE
  5
27F
330
1F
100
AcDbEntity
  8
0
100
AcDbLine
 10
-154.9920366253313
 20
2.680367656817999
 30
0.0
 11
-144.9920378753312
 21
2.685367656609668
 31
0.0
  0
LINE
  5
280
330
1F
100
AcDbEntity
  8
0
100
AcDbLine
 10
-144.9920378753312
 20
2.685367656609668
 30
0.0
 11
-144.9892598754469
 21
-2.870631648890272
 31
0.0
  0
LINE
  5
281
330
1F
100
AcDbEntity
  8
0
100
AcDbLine
 10
-144.9892598754469
 20
-2.870631648890272
 30
0.0
 11
-54.98927112544674
 21
-2.825631650765276
 31
0.0
  0
LINE
  5
282
330
1F
100
AcDbEntity
  8
0
100
AcDbLine
 10
-54.98927112544674
 20
-2.825631650765276
 30
0.0
 11
-54.99204912533099
 21
2.73036765473467
 31
0.0
  0
LINE
  5
283
330
1F
100
AcDbEntity
  8
0
100
AcDbLine
 10
-54.99204912533099
 20
2.73036765473467
 30
0.0
 11
-44.99205037533092
 21
2.735367654526333
 31
0.0
  0
LINE
  5
284
330
1F
100
AcDbEntity
  8
0
100
AcDbLine
 10
-44.99205037533092
 20
2.735367654526333
 30
0.0
 11
-44.98927237544667
 21
-2.820631650973607
 31
0.0
  0
LINE
  5
285
330
1F
100
AcDbEntity
  8
0
100
AcDbLine
 10
-44.98927237544667
 20
-2.820631650973607
 30
0.0
 11
45.01071637455347
 21
-2.775631652848599
 31
0.0
  0
LINE
  5
286
330
1F
100
AcDbEntity
  8
0
100
AcDbLine
 10
45.01071637455347
 20
-2.775631652848599
 30
0.0
 11
45.00793837466927
 21
2.780367652651347
 31
0.0
  0
LINE
  5
287
330
1F
100
AcDbEntity
  8
0
100
AcDbLine
 10
45.00793837466927
 20
2.780367652651347
 30
0.0
 11
55.00793712466935
 21
2.785367652443015
 31
0.0
  0
LINE
  5
288
330
1F
100
AcDbEntity
  8
0
100
AcDbLine
 10
55.00793712466935
 20
2.785367652443015
 30
0.0
 11
55.01071512455355
 21
-2.770631653056931
 31
0.0
  0
LINE
  5
289
330
1F
100
AcDbEntity
  8
0
100
AcDbLine
 10
55.01071512455355
 20
-2.770631653056931
 30
0.0
 11
145.0107038745537
 21
-2.725631654931923
 31
0.0
  0
LINE
  5
28A
330
1F
100
AcDbEntity
  8
0
100
AcDbLine
 10
145.0107038745537
 20
-2.725631654931923
 30
0.0
 11
145.0079258746696
 21
2.830367650568011
 31
0.0
  0
LINE
  5
28B
330
1F
100
AcDbEntity
  8
0
100
AcDbLine
 10
145.0079258746696
 20
2.830367650568011
 30
0.0
 11
155.0079246246695
 21
2.83536765035968
 31
0.0
  0
LINE
  5
28C
330
1F
100
AcDbEntity
  8
0
100
AcDbLine
 10
155.0079246246695
 20
2.83536765035968
 30
0.0
 11
155.0107026245537
 21
-2.720631655140267
 31
0.0
  0
LINE
  5
28D
330
1F
100
AcDbEntity
  8
0
100
AcDbLine
 10
155.0107026245537
 20
-2.720631655140267
 30
0.0
 11
245.010691374554
 21
-2.675631657015247
 31
0.0
  0
LINE
  5
28E
330
1F
100
AcDbEntity
  8
0
100
AcDbLine
 10
245.010691374554
 20
-2.675631657015247
 30
0.0
 11
245.0079133746698
 21
2.880367648484693
 31
0.0
  0
LINE
  5
28F
330
1F
100
AcDbEntity
  8
0
100
AcDbLine
 10
245.0079133746698
 20
2.880367648484693
 30
0.0
 11
255.0079121246698
 21
2.885367648276356
 31
0.0
  0
LINE
  5
290
330
1F
100
AcDbEntity
  8
0
100
AcDbLine
 10
255.0079121246698
 20
2.885367648276356
 30
0.0
 11
255.010690124554
 21
-2.670631657223578
 31
0.0
  0
LINE
  5
291
330
1F
100
AcDbEntity
  8
0
100
AcDbLine
 10
255.010690124554
 20
-2.670631657223578
 30
0.0
 11
361.816676773805
 21
-2.617228659448602
 31
0.0
  0
LINE
  5
292
330
1F
100
AcDbEntity
  8
0
100
AcDbLine
 10
-356.2552474685302
 20
29.05173935201082
 30
0.0
 11
-356.2537474685927
 21
26.05173972701081
 31
0.0
  0
LINE
  5
293
330
1F
100
AcDbEntity
  8
0
100
AcDbLine
 10
-356.2537474685927
 20
26.05173972701081
 30
0.0
 11
-354.2537477185927
 21
26.05273972696915
 31
0.0
  0
LINE
  5
294
330
1F
100
AcDbEntity
  8
0
100
AcDbLine
 10
-356.251747468676
 20
22.05174022701079
 30
0.0
 11
-356.2502474687385
 21
19.05174060201078
 31
0.0
  0
LINE
  5
295
330
1F
100
AcDbEntity
  8
0
100
AcDbLine
 10
-354.2537477185927
 20
26.05273972696915
 30
0.0
 11
-353.7360756189201
 21
25.98485020710014
 31
0.0
  0
LINE
  5
296
330
1F
100
AcDbEntity
  8
0
100
AcDbLine
 10
-353.7360756189201
 20
25.98485020710014
 30
0.0
 11
-353.253613869002
 21
25.78529056801083
 31
0.0
  0
LINE
  5
297
330
1F
100
AcDbEntity
  8
0
100
AcDbLine
 10
-353.253613869002
 20
25.78529056801083
 30
0.0
 11
-352.8392414397897
 21
25.46766046931727
 31
0.0
  0
LINE
  5
298
330
1F
100
AcDbEntity
  8
0
100
AcDbLine
 10
-352.8392414397897
 20
25.46766046931727
 30
0.0
 11
-352.521197127551
 21
25.05360587733684
 31
0.0
  0
LINE
  5
299
330
1F
100
AcDbEntity
  8
0
100
AcDbLine
 10
-352.521197127551
 20
25.05360587733684
 30
0.0
 11
-352.321155126572
 21
24.57134392825546
 31
0.0
  0
LINE
  5
29A
330
1F
100
AcDbEntity
  8
0
100
AcDbLine
 10
-352.321155126572
 20
24.57134392825546
 30
0.0
 11
-352.2527479686343
 21
24.05373997692747
 31
0.0
  0
LINE
  5
29B
330
1F
100
AcDbEntity
  8
0
100
AcDbLine
 10
-352.2527479686343
 20
24.05373997692747
 30
0.0
 11
-352.3206374885033
 21
23.53606787725489
 31
0.0
  0
LINE
  5
29C
330
1F
100
AcDbEntity
  8
0
100
AcDbLine
 10
-352.3206374885033
 20
23.53606787725489
 30
0.0
 11
-352.5201971275927
 21
23.05360612733683
 31
0.0
  0
LINE
  5
29D
330
1F
100
AcDbEntity
  8
0
100
AcDbLine
 10
-352.5201971275927
 20
23.05360612733683
 30
0.0
 11
-352.8378272262863
 21
22.63923369812445
 31
0.0
  0
LINE
  5
29E
330
1F
100
AcDbEntity
  8
0
100
AcDbLine
 10
-352.8378272262863
 20
22.63923369812445
 30
0.0
 11
-353.2518818182666
 21
22.32118938588577
 31
0.0
  0
LINE
  5
29F
330
1F
100
AcDbEntity
  8
0
100
AcDbLine
 10
-353.2518818182666
 20
22.32118938588577
 30
0.0
 11
-353.734143767348
 21
22.12114738490677
 31
0.0
  0
LINE
  5
2A0
330
1F
100
AcDbEntity
  8
0
100
AcDbLine
 10
-353.734143767348
 20
22.12114738490677
 30
0.0
 11
-354.251747718676
 21
22.05274022696912
 31
0.0
  0
LINE
  5
2A1
330
1F
100
AcDbEntity
  8
0
100
AcDbLine
 10
-356.251747468676
 20
22.05174022701079
 30
0.0
 11
-354.251747718676
 21
22.05274022696912
 31
0.0
  0
LINE
  5
2A2
330
1F
100
AcDbEntity
  8
0
100
AcDbLine
 10
-302.7522401538222
 20
-32.94951689560331
 30
0.0
 11
-302.7472401540306
 21
-42.94951564560326
 31
0.0
  0
LINE
  5
2A3
330
1F
100
AcDbEntity
  8
0
100
AcDbLine
 10
-297.1962408483223
 20
-32.94673889571906
 30
0.0
 11
-302.7522401538222
 21
-32.94951689560331
 31
0.0
  0
LINE
  5
2A4
330
1F
100
AcDbEntity
  8
0
100
AcDbLine
 10
-297.1912408485306
 20
-42.94673764571902
 30
0.0
 11
-297.1962408483223
 21
-32.94673889571906
 31
0.0
  0
LINE
  5
2A5
330
1F
100
AcDbEntity
  8
0
100
AcDbLine
 10
-302.7472401540306
 20
-42.94951564560326
 30
0.0
 11
-297.1912408485306
 21
-42.94673764571902
 31
0.0
  0
LINE
  5
2A6
330
1F
100
AcDbEntity
  8
0
100
AcDbLine
 10
-197.1962533483219
 20
-32.89673889780237
 30
0.0
 11
-202.7522526538219
 21
-32.89951689768662
 31
0.0
  0
LINE
  5
2A7
330
1F
100
AcDbEntity
  8
0
100
AcDbLine
 10
-197.1912533485303
 20
-42.89673764780242
 30
0.0
 11
-197.1962533483219
 21
-32.89673889780237
 31
0.0
  0
LINE
  5
2A8
330
1F
100
AcDbEntity
  8
0
100
AcDbLine
 10
-202.7472526540303
 20
-42.89951564768667
 30
0.0
 11
-197.1912533485303
 21
-42.89673764780242
 31
0.0
  0
LINE
  5
2A9
330
1F
100
AcDbEntity
  8
0
100
AcDbLine
 10
-202.7522526538219
 20
-32.89951689768662
 30
0.0
 11
-202.7472526540303
 21
-42.89951564768667
 31
0.0
  0
LINE
  5
2AA
330
1F
100
AcDbEntity
  8
0
100
AcDbLine
 10
-102.74726515403
 20
-42.84951564977001
 30
0.0
 11
-97.19126584853002
 21
-42.84673764988575
 31
0.0
  0
LINE
  5
2AB
330
1F
100
AcDbEntity
  8
0
100
AcDbLine
 10
-102.7522651538216
 20
-32.84951689976995
 30
0.0
 11
-102.74726515403
 21
-42.84951564977001
 31
0.0
  0
LINE
  5
2AC
330
1F
100
AcDbEntity
  8
0
100
AcDbLine
 10
-97.19626584832166
 20
-32.84673889988571
 30
0.0
 11
-102.7522651538216
 21
-32.84951689976995
 31
0.0
  0
LINE
  5
2AD
330
1F
100
AcDbEntity
  8
0
100
AcDbLine
 10
-97.19126584853002
 20
-42.84673764988575
 30
0.0
 11
-97.19626584832166
 21
-32.84673889988571
 31
0.0
  0
LINE
  5
2AE
330
1F
100
AcDbEntity
  8
0
100
AcDbLine
 10
-2.747277654029727
 20
-42.79951565185332
 30
0.0
 11
2.808721651470247
 21
-42.79673765196907
 31
0.0
  0
LINE
  5
2AF
330
1F
100
AcDbEntity
  8
0
100
AcDbLine
 10
-2.752277653821373
 20
-32.79951690185329
 30
0.0
 11
-2.747277654029727
 21
-42.79951565185332
 31
0.0
  0
LINE
  5
2B0
330
1F
100
AcDbEntity
  8
0
100
AcDbLine
 10
2.8037216516786
 20
-32.79673890196904
 30
0.0
 11
-2.752277653821373
 21
-32.79951690185329
 31
0.0
  0
LINE
  5
2B1
330
1F
100
AcDbEntity
  8
0
100
AcDbLine
 10
2.808721651470247
 20
-42.79673765196907
 30
0.0
 11
2.8037216516786
 21
-32.79673890196904
 31
0.0
  0
LINE
  5
2B2
330
1F
100
AcDbEntity
  8
0
100
AcDbLine
 10
97.25270984597059
 20
-42.74951565393665
 30
0.0
 11
102.8087091514705
 21
-42.7467376540524
 31
0.0
  0
LINE
  5
2B3
330
1F
100
AcDbEntity
  8
0
100
AcDbLine
 10
97.24770984617889
 20
-32.74951690393662
 30
0.0
 11
97.25270984597059
 21
-42.74951565393665
 31
0.0
  0
LINE
  5
2B4
330
1F
100
AcDbEntity
  8
0
100
AcDbLine
 10
102.8037091516788
 20
-32.74673890405238
 30
0.0
 11
97.24770984617889
 21
-32.74951690393662
 31
0.0
  0
LINE
  5
2B5
330
1F
100
AcDbEntity
  8
0
100
AcDbLine
 10
102.8087091514705
 20
-42.7467376540524
 30
0.0
 11
102.8037091516788
 21
-32.74673890405238
 31
0.0
  0
LINE
  5
2B6
330
1F
100
AcDbEntity
  8
0
100
AcDbLine
 10
197.2526973459707
 20
-42.69951565602001
 30
0.0
 11
202.8086966514707
 21
-42.69673765613576
 31
0.0
  0
LINE
  5
2B7
330
1F
100
AcDbEntity
  8
0
100
AcDbLine
 10
197.2476973461791
 20
-32.69951690601998
 30
0.0
 11
197.2526973459707
 21
-42.69951565602001
 31
0.0
  0
LINE
  5
2B8
330
1F
100
AcDbEntity
  8
0
100
AcDbLine
 10
202.803696651679
 20
-32.69673890613574
 30
0.0
 11
197.2476973461791
 21
-32.69951690601998
 31
0.0
  0
LINE
  5
2B9
330
1F
100
AcDbEntity
  8
0
100
AcDbLine
 10
202.8086966514707
 20
-42.69673765613576
 30
0.0
 11
202.803696651679
 21
-32.69673890613574
 31
0.0
  0
LINE
  5
2BA
330
1F
100
AcDbEntity
  8
0
100
AcDbLine
 10
297.2476848461793
 20
-32.64951690810329
 30
0.0
 11
297.252684845971
 21
-42.64951565810334
 31
0.0
  0
LINE
  5
2BB
330
1F
100
AcDbEntity
  8
0
100
AcDbLine
 10
302.8036841516792
 20
-32.64673890821905
 30
0.0
 11
297.2476848461793
 21
-32.64951690810329
 31
0.0
  0
LINE
  5
2BC
330
1F
100
AcDbEntity
  8
0
100
AcDbLine
 10
302.808684151471
 20
-42.6467376582191
 30
0.0
 11
302.8036841516792
 21
-32.64673890821905
 31
0.0
  0
LINE
  5
2BD
330
1F
100
AcDbEntity
  8
0
100
AcDbLine
 10
297.252684845971
 20
-42.64951565810334
 30
0.0
 11
302.808684151471
 21
-42.6467376582191
 31
0.0
  0
LINE
  5
2BE
330
1F
100
AcDbEntity
  8
0
100
AcDbLine
 10
302.8474341498562
 20
-120.1467279707192
 30
0.0
 11
297.2914348443562
 21
-120.1495059706035
 31
0.0
  0
LINE
  5
2BF
330
1F
100
AcDbEntity
  8
0
100
AcDbLine
 10
302.8524341496478
 20
-130.1467267207193
 30
0.0
 11
302.8474341498562
 21
-120.1467279707192
 31
0.0
  0
LINE
  5
2C0
330
1F
100
AcDbEntity
  8
0
100
AcDbLine
 10
297.2964348441479
 20
-130.1495047206035
 30
0.0
 11
302.8524341496478
 21
-130.1467267207193
 31
0.0
  0
LINE
  5
2C1
330
1F
100
AcDbEntity
  8
0
100
AcDbLine
 10
297.2914348443562
 20
-120.1495059706035
 30
0.0
 11
297.2964348441479
 21
-130.1495047206035
 31
0.0
  0
LINE
  5
2C2
330
1F
100
AcDbEntity
  8
0
100
AcDbLine
 10
197.291447344356
 20
-120.1995059685202
 30
0.0
 11
197.2964473441477
 21
-130.1995047185202
 31
0.0
  0
LINE
  5
2C3
330
1F
100
AcDbEntity
  8
0
100
AcDbLine
 10
202.8474466498559
 20
-120.1967279686359
 30
0.0
 11
197.291447344356
 21
-120.1995059685202
 31
0.0
  0
LINE
  5
2C4
330
1F
100
AcDbEntity
  8
0
100
AcDbLine
 10
202.8524466496476
 20
-130.1967267186359
 30
0.0
 11
202.8474466498559
 21
-120.1967279686359
 31
0.0
  0
LINE
  5
2C5
330
1F
100
AcDbEntity
  8
0
100
AcDbLine
 10
197.2964473441477
 20
-130.1995047185202
 30
0.0
 11
202.8524466496476
 21
-130.1967267186359
 31
0.0
  0
LINE
  5
2C6
330
1F
100
AcDbEntity
  8
0
100
AcDbLine
 10
102.8524591496474
 20
-130.2467267165526
 30
0.0
 11
102.8474591498557
 21
-120.2467279665526
 31
0.0
  0
LINE
  5
2C7
330
1F
100
AcDbEntity
  8
0
100
AcDbLine
 10
97.29645984414748
 20
-130.2495047164369
 30
0.0
 11
102.8524591496474
 21
-130.2467267165526
 31
0.0
  0
LINE
  5
2C8
330
1F
100
AcDbEntity
  8
0
100
AcDbLine
 10
97.29145984435578
 20
-120.2495059664368
 30
0.0
 11
97.29645984414748
 21
-130.2495047164369
 31
0.0
  0
LINE
  5
2C9
330
1F
100
AcDbEntity
  8
0
100
AcDbLine
 10
102.8474591498557
 20
-120.2467279665526
 30
0.0
 11
97.29145984435578
 21
-120.2495059664368
 31
0.0
  0
LINE
  5
2CA
330
1F
100
AcDbEntity
  8
0
100
AcDbLine
 10
2.847471649855448
 20
-120.2967279644692
 30
0.0
 11
-2.70852765564448
 21
-120.2995059643535
 31
0.0
  0
LINE
  5
2CB
330
1F
100
AcDbEntity
  8
0
100
AcDbLine
 10
2.85247164964714
 20
-130.2967267144693
 30
0.0
 11
2.847471649855448
 21
-120.2967279644692
 31
0.0
  0
LINE
  5
2CC
330
1F
100
AcDbEntity
  8
0
100
AcDbLine
 10
-2.703527655852789
 20
-130.2995047143535
 30
0.0
 11
2.85247164964714
 21
-130.2967267144693
 31
0.0
  0
LINE
  5
2CD
330
1F
100
AcDbEntity
  8
0
100
AcDbLine
 10
-2.70852765564448
 20
-120.2995059643535
 30
0.0
 11
-2.703527655852789
 21
-130.2995047143535
 31
0.0
  0
LINE
  5
2CE
330
1F
100
AcDbEntity
  8
0
100
AcDbLine
 10
-97.14751585035313
 20
-130.3467267123859
 30
0.0
 11
-97.15251585014481
 21
-120.3467279623859
 31
0.0
  0
LINE
  5
2CF
330
1F
100
AcDbEntity
  8
0
100
AcDbLine
 10
-102.7035151558531
 20
-130.3495047122702
 30
0.0
 11
-97.14751585035313
 21
-130.3467267123859
 31
0.0
  0
LINE
  5
2D0
330
1F
100
AcDbEntity
  8
0
100
AcDbLine
 10
-102.7085151556447
 20
-120.3495059622702
 30
0.0
 11
-102.7035151558531
 21
-130.3495047122702
 31
0.0
  0
LINE
  5
2D1
330
1F
100
AcDbEntity
  8
0
100
AcDbLine
 10
-97.15251585014481
 20
-120.3467279623859
 30
0.0
 11
-102.7085151556447
 21
-120.3495059622702
 31
0.0
  0
LINE
  5
2D2
330
1F
100
AcDbEntity
  8
0
100
AcDbLine
 10
-197.1525033501451
 20
-120.3967279603026
 30
0.0
 11
-202.708502655645
 21
-120.3995059601868
 31
0.0
  0
LINE
  5
2D3
330
1F
100
AcDbEntity
  8
0
100
AcDbLine
 10
-197.1475033503534
 20
-130.3967267103026
 30
0.0
 11
-197.1525033501451
 21
-120.3967279603026
 31
0.0
  0
LINE
  5
2D4
330
1F
100
AcDbEntity
  8
0
100
AcDbLine
 10
-202.7035026558534
 20
-130.3995047101868
 30
0.0
 11
-197.1475033503534
 21
-130.3967267103026
 31
0.0
  0
LINE
  5
2D5
330
1F
100
AcDbEntity
  8
0
100
AcDbLine
 10
-202.708502655645
 20
-120.3995059601868
 30
0.0
 11
-202.7035026558534
 21
-130.3995047101868
 31
0.0
  0
LINE
  5
2D6
330
1F
100
AcDbEntity
  8
0
100
AcDbLine
 10
-404.7862554047378
 20
91.05548159952173
 30
0.0
 11
-404.8012554041127
 21
121.0554778495218
 31
0.0
  0
LINE
  5
2D7
330
1F
100
AcDbEntity
  8
0
100
AcDbLine
 10
-404.7662554055713
 20
51.05548659952169
 30
0.0
 11
-404.7812554049462
 21
81.05548284952162
 31
0.0
  0
LINE
  5
2D8
330
1F
100
AcDbEntity
  8
0
100
AcDbLine
 10
-404.7812554049462
 20
81.05548284952162
 30
0.0
 11
-410.337254710446
 21
81.05270484963741
 31
0.0
  0
LINE
  5
2D9
330
1F
100
AcDbEntity
  8
0
100
AcDbLine
 10
-365.8582602720709
 20
123.0749495987102
 30
0.0
 11
-365.8566352721386
 21
119.8249500049603
 31
0.0
  0
LINE
  5
2DA
330
1F
100
AcDbEntity
  8
0
100
AcDbLine
 10
-361.8222607735713
 20
51.07695859862681
 30
0.0
 11
-378.294258714571
 21
51.06872259897008
 31
0.0
  0
LINE
  5
2DB
330
1F
100
AcDbEntity
  8
0
100
AcDbLine
 10
-367.8572600221126
 20
121.073949848752
 30
0.0
 11
-404.8012554041127
 21
121.0554778495218
 31
0.0
  0
LINE
  5
2DC
330
1F
100
AcDbEntity
  8
0
100
AcDbLine
 10
-365.8566352721386
 20
119.8249500049603
 30
0.0
 11
-361.8566357721392
 21
119.8269500048769
 31
0.0
  0
LINE
  5
2DD
330
1F
100
AcDbEntity
  8
0
100
AcDbLine
 10
-367.8582600220709
 20
123.0739495987519
 30
0.0
 11
-367.8572600221126
 21
121.073949848752
 31
0.0
  0
LINE
  5
2DE
330
1F
100
AcDbEntity
  8
0
100
AcDbLine
 10
-361.8566357721392
 20
119.8269500048769
 30
0.0
 11
-361.842260772738
 21
91.07695359862684
 31
0.0
  0
LINE
  5
2DF
330
1F
100
AcDbEntity
  8
0
100
AcDbLine
 10
-367.8582600220709
 20
123.0739495987519
 30
0.0
 11
-365.8582602720709
 21
123.0749495987102
 31
0.0
  0
LINE
  5
2E0
330
1F
100
AcDbEntity
  8
0
100
AcDbLine
 10
-410.3422547102377
 20
91.05270359963751
 30
0.0
 11
-404.7862554047378
 21
91.05548159952173
 31
0.0
  0
LINE
  5
2E1
330
1F
100
AcDbEntity
  8
0
100
AcDbLine
 10
-388.294257464571
 20
51.06372259917845
 30
0.0
 11
-404.7662554055713
 21
51.05548659952169
 31
0.0
  0
LINE
  5
2E2
330
1F
100
AcDbEntity
  8
0
100
AcDbLine
 10
-388.294257464571
 20
51.06372259917845
 30
0.0
 11
-388.2914794646869
 21
45.50772329367834
 31
0.0
  0
LINE
  5
2E3
330
1F
100
AcDbEntity
  8
0
100
AcDbLine
 10
-388.2914794646869
 20
45.50772329367834
 30
0.0
 11
-378.2914807146868
 21
45.51272329346997
 31
0.0
  0
LINE
  5
2E4
330
1F
100
AcDbEntity
  8
0
100
AcDbLine
 10
-378.2914807146868
 20
45.51272329346997
 30
0.0
 11
-378.294258714571
 21
51.06872259897008
 31
0.0
  0
LINE
  5
2E5
330
1F
100
AcDbEntity
  8
0
100
AcDbLine
 10
-361.7946077747233
 20
-4.229034488123478
 30
0.0
 11
-361.7952327746974
 21
-2.979034644373515
 31
0.0
  0
LINE
  5
2E6
330
1F
100
AcDbEntity
  8
0
100
AcDbLine
 10
-361.7508577765461
 20
-91.72902355062352
 30
0.0
 11
-361.7602327761558
 21
-72.97902589437355
 31
0.0
  0
ENDSEC
  0
SECTION
  2
OBJECTS
  0
DICTIONARY
  5
C
330
0
100
AcDbDictionary
  3
ACAD_GROUP
350
D
  3
ACAD_LAYOUT
350
1A
  3
ACAD_MATERIAL
350
43
  3
ACAD_MLEADERSTYLE
350
309
  3
ACAD_MLINESTYLE
350
17
  3
ACAD_PLOTSETTINGS
350
19
  3
ACAD_SCALELIST
350
47
  3
ACAD_VISUALSTYLE
350
2A
  3
ACDBHEADERROUNDTRIPXREC
350
2E7
  3
ACDBVARIABLEDICTIONARY
350
307
  0
DICTIONARY
  5
30E
330
8
100
AcDbDictionary
280
     1
  3
ACAD_XREC_ROUNDTRIP
360
30F
  0
DICTIONARY
  5
D
102
{ACAD_REACTORS
330
C
102
}
330
C
100
AcDbDictionary
  0
DICTIONARY
  5
1A
102
{ACAD_REACTORS
330
C
102
}
330
C
100
AcDbDictionary
  0
DICTIONARY
  5
43
102
{ACAD_REACTORS
330
C
102
}
330
C
100
AcDbDictionary
  3
BYBLOCK
350
45
  3
BYLAYER
350
44
  3
GLOBAL
350
46
  0
DICTIONARY
  5
309
102
{ACAD_REACTORS
330
C
102
}
330
C
100
AcDbDictionary
  0
DICTIONARY
  5
17
102
{ACAD_REACTORS
330
C
102
}
330
C
100
AcDbDictionary
  3
STANDARD
350
18
  0
DICTIONARY
  5
19
102
{ACAD_REACTORS
330
C
102
}
330
C
100
AcDbDictionary
  0
DICTIONARY
  5
47
102
{ACAD_REACTORS
330
C
102
}
330
C
100
AcDbDictionary
  3
A0
350
48
  3
A1
350
49
  3
A2
350
4A
  3
A3
350
4B
  3
A4
350
4C
  3
A5
350
4D
  3
A6
350
4E
  3
A7
350
4F
  3
A8
350
50
  3
A9
350
51
  3
B0
350
52
  3
B1
350
53
  3
B2
350
54
  3
B3
350
55
  3
B4
350
56
  3
B5
350
57
  3
B6
350
58
  3
B7
350
59
  3
B8
350
5A
  3
B9
350
5B
  3
C0
350
5C
  3
C1
350
5D
  3
C2
350
5E
  3
C3
350
5F
  3
C4
350
60
  3
C5
350
61
  3
C6
350
62
  3
C7
350
63
  3
C8
350
64
  3
C9
350
65
  3
D0
350
66
  3
D1
350
67
  3
D2
350
68
  0
DICTIONARY
  5
2A
102
{ACAD_REACTORS
330
C
102
}
330
C
100
AcDbDictionary
  3
2DWIREFRAME
350
2F
  3
BASIC
350
32
  3
BRIGHTEN
350
36
  3
COLORCHANGE
350
3A
  3
CONCEPTUAL
350
34
  3
DIM
350
35
  3
EDGECOLOROFF
350
3D
  3
FACEPATTERN
350
39
  3
FLAT
350
2B
  3
FLATWITHEDGES
350
2C
  3
GOURAUD
350
2D
  3
GOURAUDWITHEDGES
350
2E
  3
HIDDEN
350
31
  3
JITTEROFF
350
3B
  3
LINEPATTERN
350
38
  3
OVERHANGOFF
350
3C
  3
REALISTIC
350
33
  3
SHADED
350
42
  3
SHADED_WITH_EDGES
350
41
  3
SHADES_OF_GRAY
350
3E
  3
SKETCHY
350
3F
  3
THICKEN
350
37
  3
WIREFRAME
350
30
  3
X-RAY
350
40
  0
DICTIONARY
  5
2E7
102
{ACAD_REACTORS
330
C
102
}
330
C
100
AcDbDictionary
  3
CEPSNTYPE
350
2F0
  3
DIMSTYLEDATA
350
306
  3
FINGERPRINTGUID
350
2F1
  3
HYPERLINKBASE
350
2EA
  3
INSUNITS
350
2EF
  3
LAYOUTDICT
350
2EC
  3
LWETCUNION
350
2EE
  3
PLOTSETDICT
350
2ED
  3
PSVPSCALE
350
2F3
  3
PUCSBASE
350
2F6
  3
PUCSORGBACK
350
2FC
  3
PUCSORGBOTTOM
350
2F8
  3
PUCSORGFRONT
350
2FB
  3
PUCSORGLEFT
350
2F9
  3
PUCSORGRIGHT
350
2FA
  3
PUCSORGTOP
350
2F7
  3
PUCSORTHOREF
350
2F4
  3
PUCSORTHOVIEW
350
2F5
  3
STYLESHEET
350
2EB
  3
TSTACKALIGN
350
2E8
  3
TSTACKSIZE
350
2E9
  3
UCSBASE
350
2FF
  3
UCSORGBACK
350
305
  3
UCSORGBOTTOM
350
301
  3
UCSORGFRONT
350
304
  3
UCSORGLEFT
350
302
  3
UCSORGRIGHT
350
303
  3
UCSORGTOP
350
300
  3
UCSORTHOREF
350
2FD
  3
UCSORTHOVIEW
350
2FE
  3
VERSIONGUID
350
2F2
  0
DICTIONARY
  5
307
102
{ACAD_REACTORS
330
C
102
}
330
C
100
AcDbDictionary
  3
CANNOSCALE
350
310
  3
DIMASSOC
350
30C
  3
HIDETEXT
350
30D
  3
MSLTSCALE
350
311
  0
XRECORD
  5
30F
102
{ACAD_REACTORS
330
30E
102
}
330
30E
100
AcDbXrecord
102
VTR_0.000_0.000_1.000_1.000_GRIDDISPLAY
 70
     3
102
VTR_0.000_0.000_1.000_1.000_GRIDMAJOR
 70
     5
102
VTR_0.000_0.000_1.000_1.000_DEFAULTLIGHTING
280
     1
102
VTR_0.000_0.000_1.000_1.000_DEFAULTLIGHTINGTYPE
 70
     1
102
VTR_0.000_0.000_1.000_1.000_BRIGHTNESS
141
0.0
102
VTR_0.000_0.000_1.000_1.000_CONTRAST
142
0.0
  0
MATERIAL
  5
45
102
{ACAD_REACTORS
330
43
102
}
102
{ACAD_XDICTIONARY
360
314
102
}
330
43
100
AcDbMaterial
  1
BYBLOCK
  0
MATERIAL
  5
44
102
{ACAD_REACTORS
330
43
102
}
102
{ACAD_XDICTIONARY
360
312
102
}
330
43
100
AcDbMaterial
  1
BYLAYER
  0
MATERIAL
  5
46
102
{ACAD_REACTORS
330
43
102
}
102
{ACAD_XDICTIONARY
360
316
102
}
330
43
100
AcDbMaterial
  1
GLOBAL
  0
MLINESTYLE
  5
18
102
{ACAD_REACTORS
330
17
102
}
330
17
100
AcDbMlineStyle
  2
Standard
 70
     0
  3

 62
   256
 51
90.0
 52
90.0
 71
     2
 49
0.5
 62
   256
  6
BYLAYER
 49
-0.5
 62
   256
  6
BYLAYER
  0
ACAD_PROXY_OBJECT
  5
48
102
{ACAD_REACTORS
330
47
102
}
330
47
100
AcDbProxyObject
 90
      499
 91
      503
 93
       41
310
903313A31580
  0
ACAD_PROXY_OBJECT
  5
49
102
{ACAD_REACTORS
330
47
102
}
330
47
100
AcDbProxyObject
 90
      499
 91
      503
 93
      105
310
903313A324000000000000004000
  0
ACAD_PROXY_OBJECT
  5
4A
102
{ACAD_REACTORS
330
47
102
}
330
47
100
AcDbProxyObject
 90
      499
 91
      503
 93
      105
310
903313A344000000000000104000
  0
ACAD_PROXY_OBJECT
  5
4B
102
{ACAD_REACTORS
330
47
102
}
330
47
100
AcDbProxyObject
 90
      499
 91
      503
 93
      105
310
903313A354000000000000144000
  0
ACAD_PROXY_OBJECT
  5
4C
102
{ACAD_REACTORS
330
47
102
}
330
47
100
AcDbProxyObject
 90
      499
 91
      503
 93
      105
310
903313A384000000000000204000
  0
ACAD_PROXY_OBJECT
  5
4D
102
{ACAD_REACTORS
330
47
102
}
330
47
100
AcDbProxyObject
 90
      499
 91
      503
 93
      113
310
904313A31304000000000000244000
  0
ACAD_PROXY_OBJECT
  5
4E
102
{ACAD_REACTORS
330
47
102
}
330
47
100
AcDbProxyObject
 90
      499
 91
      503
 93
      113
310
904313A31364000000000000304000
  0
ACAD_PROXY_OBJECT
  5
4F
102
{ACAD_REACTORS
330
47
102
}
330
47
100
AcDbProxyObject
 90
      499
 91
      503
 93
      113
310
904313A32304000000000000344000
  0
ACAD_PROXY_OBJECT
  5
50
102
{ACAD_REACTORS
330
47
102
}
330
47
100
AcDbProxyObject
 90
      499
 91
      503
 93
      113
310
904313A333040000000000003E4000
  0
ACAD_PROXY_OBJECT
  5
51
102
{ACAD_REACTORS
330
47
102
}
330
47
100
AcDbProxyObject
 90
      499
 91
      503
 93
      113
310
904313A34304000000000000444000
  0
ACAD_PROXY_OBJECT
  5
52
102
{ACAD_REACTORS
330
47
102
}
330
47
100
AcDbProxyObject
 90
      499
 91
      503
 93
      113
310
904313A35304000000000000494000
  0
ACAD_PROXY_OBJECT
  5
53
102
{ACAD_REACTORS
330
47
102
}
330
47
100
AcDbProxyObject
 90
      499
 91
      503
 93
      121
310
905313A3130304000000000000594000
  0
ACAD_PROXY_OBJECT
  5
54
102
{ACAD_REACTORS
330
47
102
}
330
47
100
AcDbProxyObject
 90
      499
 91
      503
 93
      105
310
903323A310000000000000010100
  0
ACAD_PROXY_OBJECT
  5
55
102
{ACAD_REACTORS
330
47
102
}
330
47
100
AcDbProxyObject
 90
      499
 91
      503
 93
      105
310
903343A310000000000000410100
  0
ACAD_PROXY_OBJECT
  5
56
102
{ACAD_REACTORS
330
47
102
}
330
47
100
AcDbProxyObject
 90
      499
 91
      503
 93
      105
310
903383A310000000000000810100
  0
ACAD_PROXY_OBJECT
  5
57
102
{ACAD_REACTORS
330
47
102
}
330
47
100
AcDbProxyObject
 90
      499
 91
      503
 93
      113
310
90431303A310000000000000910100
  0
ACAD_PROXY_OBJECT
  5
58
102
{ACAD_REACTORS
330
47
102
}
330
47
100
AcDbProxyObject
 90
      499
 91
      503
 93
      121
310
9053130303A310000000000001650100
  0
ACAD_PROXY_OBJECT
  5
59
102
{ACAD_REACTORS
330
47
102
}
330
47
100
AcDbProxyObject
 90
      499
 91
      503
 93
      257
310
90E312F31323822203D2031272D3022000000000000200FC000000000000284000
  0
ACAD_PROXY_OBJECT
  5
5A
102
{ACAD_REACTORS
330
47
102
}
330
47
100
AcDbProxyObject
 90
      499
 91
      503
 93
      249
310
90D312F363422203D2031272D3022000000000000240FC000000000000284000
  0
ACAD_PROXY_OBJECT
  5
5B
102
{ACAD_REACTORS
330
47
102
}
330
47
100
AcDbProxyObject
 90
      499
 91
      503
 93
      249
310
90D312F333222203D2031272D3022000000000000280FC000000000000284000
  0
ACAD_PROXY_OBJECT
  5
5C
102
{ACAD_REACTORS
330
47
102
}
330
47
100
AcDbProxyObject
 90
      499
 91
      503
 93
      249
310
90D312F313622203D2031272D30220000000000002C0FC000000000000284000
  0
ACAD_PROXY_OBJECT
  5
5D
102
{ACAD_REACTORS
330
47
102
}
330
47
100
AcDbProxyObject
 90
      499
 91
      503
 93
      249
310
90D332F333222203D2031272D30220000000000002E0FC000000000000284000
  0
ACAD_PROXY_OBJECT
  5
5E
102
{ACAD_REACTORS
330
47
102
}
330
47
100
AcDbProxyObject
 90
      499
 91
      503
 93
      241
310
90C312F3822203D2031272D3022000000000000300FC000000000000284000
  0
ACAD_PROXY_OBJECT
  5
5F
102
{ACAD_REACTORS
330
47
102
}
330
47
100
AcDbProxyObject
 90
      499
 91
      503
 93
      249
310
90D332F313622203D2031272D3022000000000000320FC000000000000284000
  0
ACAD_PROXY_OBJECT
  5
60
102
{ACAD_REACTORS
330
47
102
}
330
47
100
AcDbProxyObject
 90
      499
 91
      503
 93
      241
310
90C312F3422203D2031272D3022000000000000340FC000000000000284000
  0
ACAD_PROXY_OBJECT
  5
61
102
{ACAD_REACTORS
330
47
102
}
330
47
100
AcDbProxyObject
 90
      499
 91
      503
 93
      241
310
90C332F3822203D2031272D3022000000000000360FC000000000000284000
  0
ACAD_PROXY_OBJECT
  5
62
102
{ACAD_REACTORS
330
47
102
}
330
47
100
AcDbProxyObject
 90
      499
 91
      503
 93
      241
310
90C312F3222203D2031272D3022000000000000380FC000000000000284000
  0
ACAD_PROXY_OBJECT
  5
63
102
{ACAD_REACTORS
330
47
102
}
330
47
100
AcDbProxyObject
 90
      499
 91
      503
 93
      241
310
90C332F3422203D2031272D30220000000000003A0FC000000000000284000
  0
ACAD_PROXY_OBJECT
  5
64
102
{ACAD_REACTORS
330
47
102
}
330
47
100
AcDbProxyObject
 90
      499
 91
      503
 93
      161
310
90A3122203D2031272D30224000000000000284000
  0
ACAD_PROXY_OBJECT
  5
65
102
{ACAD_REACTORS
330
47
102
}
330
47
100
AcDbProxyObject
 90
      499
 91
      503
 93
      257
310
90E312D312F3222203D2031272D30220000000000003E0FC000000000000284000
  0
ACAD_PROXY_OBJECT
  5
66
102
{ACAD_REACTORS
330
47
102
}
330
47
100
AcDbProxyObject
 90
      499
 91
      503
 93
      225
310
90A3322203D2031272D302200000000000002100000000000000284000
  0
ACAD_PROXY_OBJECT
  5
67
102
{ACAD_REACTORS
330
47
102
}
330
47
100
AcDbProxyObject
 90
      499
 91
      503
 93
      225
310
90A3622203D2031272D302200000000000006100000000000000284000
  0
ACAD_PROXY_OBJECT
  5
68
102
{ACAD_REACTORS
330
47
102
}
330
47
100
AcDbProxyObject
 90
      499
 91
      503
 93
      249
310
90D31272D3022203D2031272D30220000000000000A100000000000000284000
  0
ACAD_PROXY_OBJECT
  5
2F
102
{ACAD_REACTORS
330
2A
102
}
330
2A
100
AcDbProxyObject
 90
      499
 91
      501
 93
      436
310
42CC9915DA5C99599C985B595049028333333333333E33F0000000000000F90107901411070040501600405405064090741402480A0340
1001
ACAD
1000
AcDbSavedByObjectVersion
1070
     0
  0
ACAD_PROXY_OBJECT
  5
32
102
{ACAD_REACTORS
330
2A
102
}
330
2A
100
AcDbProxyObject
 90
      499
 91
      501
 93
      388
310
4150985CDA58D07406404333333333333E33F0000000000000F90107A41107004050150841D405064090741402480A0350
1001
ACAD
1000
AcDbSavedByObjectVersion
1070
     0
  0
ACAD_PROXY_OBJECT
  5
36
102
{ACAD_REACTORS
330
2A
102
}
330
2A
100
AcDbProxyObject
 90
      499
 91
      501
 93
      428
310
42109C9A59DA1D195B90C409028333333333333E33F0000000000000F9010790141107004050150841D405064090741402480A029950
1001
ACAD
1000
AcDbSavedByObjectVersion
1070
     0
  0
ACAD_PROXY_OBJECT
  5
3A
102
{ACAD_REACTORS
330
2A
102
}
330
2A
100
AcDbProxyObject
 90
      499
 91
      501
 93
      452
310
42D0DBDB1BDC90DA185B99D95104090240C333333333333E33F0000000000000F90108901411070040501508421405064090741402480A0350
1001
ACAD
1000
AcDbSavedByObjectVersion
1070
     0
  0
ACAD_PROXY_OBJECT
  5
34
102
{ACAD_REACTORS
330
2A
102
}
330
2A
100
AcDbProxyObject
 90
      499
 91
      501
 93
      500
310
4290DBDB98D95C1D1D585B10940D028333333333333E33F0000000000000F90107902409070040501000000000018199010841D405064090740C02480A0340
1001
ACAD
1000
AcDbSavedByObjectVersion
1070
     0
  0
ACAD_PROXY_OBJECT
  5
35
102
{ACAD_REACTORS
330
2A
102
}
330
2A
100
AcDbProxyObject
 90
      499
 91
      501
 93
      412
310
40D11A5B50B409028333333333333E33F0000000000000F9010790141107004050150841D405064090741402480A02677FFFFFD0
1001
ACAD
1000
AcDbSavedByObjectVersion
1070
     0
  0
ACAD_PROXY_OBJECT
  5
3D
102
{ACAD_REACTORS
330
2A
102
}
330
2A
100
AcDbProxyObject
 90
      499
 91
      501
 93
      452
310
43115919D950DBDB1BDC93D999916409028333333333333E33F0000000000000F9010790141107004050150841D405064090741402480A0350
1001
ACAD
1000
AcDbSavedByObjectVersion
1070
     0
  0
ACAD_PROXY_OBJECT
  5
39
102
{ACAD_REACTORS
330
2A
102
}
330
2A
100
AcDbProxyObject
 90
      499
 91
      501
 93
      444
310
42D19858D95C185D1D195C9B90F409028333333333333E33F0000000000000F9010790141107004050150841D405064090741402480A0350
1001
ACAD
1000
AcDbSavedByObjectVersion
1070
     0
  0
ACAD_PROXY_OBJECT
  5
2B
102
{ACAD_REACTORS
330
2A
102
}
330
2A
100
AcDbProxyObject
 90
      499
 91
      501
 93
      380
310
41119B185D240901404333333333333E33F0000000000000F9010740A907004050150841D405064090741402480A1B50
1001
ACAD
1000
AcDbSavedByObjectVersion
1070
     0
  0
ACAD_PROXY_OBJECT
  5
2C
102
{ACAD_REACTORS
330
2A
102
}
330
2A
100
AcDbProxyObject
 90
      499
 91
      501
 93
      468
310
43519B185D15DA5D1A115919D95CD0140901404333333333333E33F0000000000000F90107409019070040501600405405064090741402480A1B50
1001
ACAD
1000
AcDbSavedByObjectVersion
1070
     0
  0
ACAD_PROXY_OBJECT
  5
2D
102
{ACAD_REACTORS
330
2A
102
}
330
2A
100
AcDbProxyObject
 90
      499
 91
      501
 93
      404
310
41D1DBDD5C985D5910240902404333333333333E33F0000000000000F9010740A9070040501641D405064090741402480A1B50
1001
ACAD
1000
AcDbSavedByObjectVersion
1070
     0
  0
ACAD_PROXY_OBJECT
  5
2E
102
{ACAD_REACTORS
330
2A
102
}
330
2A
100
AcDbProxyObject
 90
      499
 91
      501
 93
      492
310
4411DBDD5C985D5915DA5D1A115919D95CD0340902404333333333333E33F0000000000000F90107409019070040501600405405064090741402480A1B50
1001
ACAD
1000
AcDbSavedByObjectVersion
1070
     0
  0
ACAD_PROXY_OBJECT
  5
31
102
{ACAD_REACTORS
330
2A
102
}
330
2A
100
AcDbProxyObject
 90
      499
 91
      501
 93
      476
310
41921A5919195B90640502408333333333333E33F0000000000000F901079024090700405020000000000001110200405405064090740C02480A0340
1001
ACAD
1000
AcDbSavedByObjectVersion
1070
     0
  0
ACAD_PROXY_OBJECT
  5
3B
102
{ACAD_REACTORS
330
2A
102
}
330
2A
100
AcDbProxyObject
 90
      499
 91
      501
 93
      428
310
42529A5D1D195C93D999914409028333333333333E33F0000000000000F9010790141107004050150A41D405064090741402480A0350
1001
ACAD
1000
AcDbSavedByObjectVersion
1070
     0
  0
ACAD_PROXY_OBJECT
  5
38
102
{ACAD_REACTORS
330
2A
102
}
330
2A
100
AcDbProxyObject
 90
      499
 91
      501
 93
      444
310
42D31A5B995C185D1D195C9B90E409028333333333333E33F0000000000000F9010790141107004050750841D405064090741402483A0350
1001
ACAD
1000
AcDbSavedByObjectVersion
1070
     0
  0
ACAD_PROXY_OBJECT
  5
3C
102
{ACAD_REACTORS
330
2A
102
}
330
2A
100
AcDbProxyObject
 90
      499
 91
      501
 93
      444
310
42D3DD995C9A185B99D3D999915409028333333333333E33F0000000000000F9010790141107004050150941D405064090741402480A0350
1001
ACAD
1000
AcDbSavedByObjectVersion
1070
     0
  0
ACAD_PROXY_OBJECT
  5
33
102
{ACAD_REACTORS
330
2A
102
}
330
2A
100
AcDbProxyObject
 90
      499
 91
      501
 93
      428
310
425499585B1A5CDD1A58D08409038333333333333E33F0000000000000F9010740A907004050150800405405064090740C02480A1B40
1001
ACAD
1000
AcDbSavedByObjectVersion
1070
     0
  0
ACAD_PROXY_OBJECT
  5
42
102
{ACAD_REACTORS
330
2A
102
}
330
2A
100
AcDbProxyObject
 90
      499
 91
      501
 93
      420
310
4194DA1859195911B40902404333333333333E33F0000000000000F9010740A41107004050150800405405064090840C02480A0B40
1001
ACAD
1000
AcDbSavedByObjectVersion
1070
     0
  0
ACAD_PROXY_OBJECT
  5
41
102
{ACAD_REACTORS
330
2A
102
}
330
2A
100
AcDbProxyObject
 90
      499
 91
      501
 93
      516
310
4454DA18591959081DDA5D1A08195919D95CD1A40902404333333333333E33F0000000000000F901074090142907004050250800405405064090740C02480A0B40
1001
ACAD
1000
AcDbSavedByObjectVersion
1070
     0
  0
ACAD_PROXY_OBJECT
  5
3E
102
{ACAD_REACTORS
330
2A
102
}
330
2A
100
AcDbProxyObject
 90
      499
 91
      501
 93
      532
310
4394DA1859195CC81BD98811DC985E5174090240C333333333333E33F0000000000000F901079024090741D01000000000000111010841D405064090740C02480A0340
1001
ACAD
1000
AcDbSavedByObjectVersion
1070
     0
  0
ACAD_PROXY_OBJECT
  5
3F
102
{ACAD_REACTORS
330
2A
102
}
330
2A
100
AcDbProxyObject
 90
      499
 91
      501
 93
      476
310
41D4DAD95D18DA1E51840502408333333333333E33F0000000000000F901079024090741D01000000000000111010B41D405064090741802480A0340
1001
ACAD
1000
AcDbSavedByObjectVersion
1070
     0
  0
ACAD_PROXY_OBJECT
  5
37
102
{ACAD_REACTORS
330
2A
102
}
330
2A
100
AcDbProxyObject
 90
      499
 91
      501
 93
      412
310
41D51A1A58DAD95B90D409028333333333333E33F0000000000000F9010790141107004050150C41D405064090741402480A0350
1001
ACAD
1000
AcDbSavedByObjectVersion
1070
     0
  0
ACAD_PROXY_OBJECT
  5
30
102
{ACAD_REACTORS
330
2A
102
}
330
2A
100
AcDbProxyObject
 90
      499
 91
      501
 93
      420
310
4255DA5C99599C985B595059028333333333333E33F0000000000000F90107901411070040501600405405064090740C02480A0340
1001
ACAD
1000
AcDbSavedByObjectVersion
1070
     0
  0
ACAD_PROXY_OBJECT
  5
40
102
{ACAD_REACTORS
330
2A
102
}
330
2A
100
AcDbProxyObject
 90
      499
 91
      501
 93
      404
310
41560B54985E51940902404000000000000E03F0000000000000F9010740501907004050150841D405064090740C02480A1B40
1001
ACAD
1000
AcDbSavedByObjectVersion
1070
     0
  0
XRECORD
  5
2F0
102
{ACAD_REACTORS
330
2E7
102
}
330
2E7
100
AcDbXrecord
 90
        0
  0
XRECORD
  5
306
102
{ACAD_REACTORS
330
2E7
102
}
330
2E7
100
AcDbXrecord
1000
DSTYLE
1002
{
1070
   171
 70
     2
1070
   143
 40
25.4
1070
   274
 70
     2
1070
    41
 40
0.18
1070
   141
 40
0.09
1070
   271
 70
     4
1070
    43
 40
0.38
1070
   278
 70
    46
1070
    44
 40
0.18
1070
    42
 40
0.0625
1070
   147
 40
0.09
1070
    77
 70
     0
1070
   272
 70
     4
1070
    73
 70
     1
1070
   172
 70
     0
1070
    74
 70
     1
1070
   283
 70
     1
1070
   340
340
11
1070
   140
 40
0.18
1070
   284
 70
     0
1070
    78
 70
     0
1002
}
  0
XRECORD
  5
2F1
102
{ACAD_REACTORS
330
2E7
102
}
330
2E7
100
AcDbXrecord
  1
{D6B6C522-D896-4A05-AB51-0E0F6720B786}
  0
XRECORD
  5
2EA
102
{ACAD_REACTORS
330
2E7
102
}
330
2E7
100
AcDbXrecord
  1

  0
XRECORD
  5
2EF
102
{ACAD_REACTORS
330
2E7
102
}
330
2E7
100
AcDbXrecord
 90
        4
  0
XRECORD
  5
2EC
102
{ACAD_REACTORS
330
2E7
102
}
330
2E7
100
AcDbXrecord
340
1A
  0
XRECORD
  5
2EE
102
{ACAD_REACTORS
330
2E7
102
}
330
2E7
100
AcDbXrecord
 90
    10781
  0
XRECORD
  5
2ED
102
{ACAD_REACTORS
330
2E7
102
}
330
2E7
100
AcDbXrecord
340
19
  0
XRECORD
  5
2F3
102
{ACAD_REACTORS
330
2E7
102
}
330
2E7
100
AcDbXrecord
 40
0.0
  0
XRECORD
  5
2F6
102
{ACAD_REACTORS
330
2E7
102
}
330
2E7
100
AcDbXrecord
340
0
  0
XRECORD
  5
2FC
102
{ACAD_REACTORS
330
2E7
102
}
330
2E7
100
AcDbXrecord
 10
0.0
 20
0.0
 30
0.0
  0
XRECORD
  5
2F8
102
{ACAD_REACTORS
330
2E7
102
}
330
2E7
100
AcDbXrecord
 10
0.0
 20
0.0
 30
0.0
  0
XRECORD
  5
2FB
102
{ACAD_REACTORS
330
2E7
102
}
330
2E7
100
AcDbXrecord
 10
0.0
 20
0.0
 30
0.0
  0
XRECORD
  5
2F9
102
{ACAD_REACTORS
330
2E7
102
}
330
2E7
100
AcDbXrecord
 10
0.0
 20
0.0
 30
0.0
  0
XRECORD
  5
2FA
102
{ACAD_REACTORS
330
2E7
102
}
330
2E7
100
AcDbXrecord
 10
0.0
 20
0.0
 30
0.0
  0
XRECORD
  5
2F7
102
{ACAD_REACTORS
330
2E7
102
}
330
2E7
100
AcDbXrecord
 10
0.0
 20
0.0
 30
0.0
  0
XRECORD
  5
2F4
102
{ACAD_REACTORS
330
2E7
102
}
330
2E7
100
AcDbXrecord
340
0
  0
XRECORD
  5
2F5
102
{ACAD_REACTORS
330
2E7
102
}
330
2E7
100
AcDbXrecord
 70
     0
  0
XRECORD
  5
2EB
102
{ACAD_REACTORS
330
2E7
102
}
330
2E7
100
AcDbXrecord
  1

  0
XRECORD
  5
2E8
102
{ACAD_REACTORS
330
2E7
102
}
330
2E7
100
AcDbXrecord
 90
        1
  0
XRECORD
  5
2E9
102
{ACAD_REACTORS
330
2E7
102
}
330
2E7
100
AcDbXrecord
 90
       70
  0
XRECORD
  5
2FF
102
{ACAD_REACTORS
330
2E7
102
}
330
2E7
100
AcDbXrecord
340
0
  0
XRECORD
  5
305
102
{ACAD_REACTORS
330
2E7
102
}
330
2E7
100
AcDbXrecord
 10
0.0
 20
0.0
 30
0.0
  0
XRECORD
  5
301
102
{ACAD_REACTORS
330
2E7
102
}
330
2E7
100
AcDbXrecord
 10
0.0
 20
0.0
 30
0.0
  0
XRECORD
  5
304
102
{ACAD_REACTORS
330
2E7
102
}
330
2E7
100
AcDbXrecord
 10
0.0
 20
0.0
 30
0.0
  0
XRECORD
  5
302
102
{ACAD_REACTORS
330
2E7
102
}
330
2E7
100
AcDbXrecord
 10
0.0
 20
0.0
 30
0.0
  0
XRECORD
  5
303
102
{ACAD_REACTORS
330
2E7
102
}
330
2E7
100
AcDbXrecord
 10
0.0
 20
0.0
 30
0.0
  0
XRECORD
  5
300
102
{ACAD_REACTORS
330
2E7
102
}
330
2E7
100
AcDbXrecord
 10
0.0
 20
0.0
 30
0.0
  0
XRECORD
  5
2FD
102
{ACAD_REACTORS
330
2E7
102
}
330
2E7
100
AcDbXrecord
340
0
  0
XRECORD
  5
2FE
102
{ACAD_REACTORS
330
2E7
102
}
330
2E7
100
AcDbXrecord
 70
     0
  0
XRECORD
  5
2F2
102
{ACAD_REACTORS
330
2E7
102
}
330
2E7
100
AcDbXrecord
  1
{FAEB1C32-E019-11D5-929B-00C0DF256EC4}
  0
DICTIONARYVAR
  5
310
102
{ACAD_REACTORS
330
307
102
}
330
307
100
DictionaryVariables
280
     0
  1
1:1
  0
DICTIONARYVAR
  5
30C
102
{ACAD_REACTORS
330
307
102
}
330
307
100
DictionaryVariables
280
     0
  1
2
  0
DICTIONARYVAR
  5
30D
102
{ACAD_REACTORS
330
307
102
}
330
307
100
DictionaryVariables
280
     0
  1
1
  0
DICTIONARYVAR
  5
311
102
{ACAD_REACTORS
330
307
102
}
330
307
100
DictionaryVariables
280
     0
  1
1
  0
DICTIONARY
  5
314
330
45
100
AcDbDictionary
280
     1
  3
ACAD_XREC_ROUNDTRIP
360
315
  0
DICTIONARY
  5
312
330
44
100
AcDbDictionary
280
     1
  3
ACAD_XREC_ROUNDTRIP
360
313
  0
DICTIONARY
  5
316
330
46
100
AcDbDictionary
280
     1
  3
ACAD_XREC_ROUNDTRIP
360
317
  0
XRECORD
  5
315
102
{ACAD_REACTORS
330
314
102
}
330
314
100
AcDbXrecord
102
MATERIAL
148
0.0
149
0.0
149
0.0
 93
        0
 94
      127
282
     0
 72
     1
 77
     1
171
     1
175
     1
179
     1
273
     0
  0
XRECORD
  5
313
102
{ACAD_REACTORS
330
312
102
}
330
312
100
AcDbXrecord
102
MATERIAL
148
0.0
149
0.0
149
0.0
 93
        0
 94
      127
282
     0
 72
     1
 77
     1
171
     1
175
     1
179
     1
273
     0
  0
XRECORD
  5
317
102
{ACAD_REACTORS
330
316
102
}
330
316
100
AcDbXrecord
102
MATERIAL
148
0.0
149
0.0
149
0.0
 93
        0
 94
      127
282
     0
 72
     1
 77
     1
171
     1
175
     1
179
     1
273
     0
  0
ENDSEC
  0
EOF
